<?xml version="1.0" encoding="UTF-8"?>
<svg version="1.1" viewBox="0 0 2048 1151" width="1199" height="674" xmlns="http://www.w3.org/2000/svg">
<path transform="translate(0)" d="m0 0h2048v1151h-2048z" fill="#FDFDFC"/>
<path transform="translate(948,471)" d="m0 0 6 1 6 7 3 8-2 8-11 12-9 9-7 8-30 30-15 16-2 2 9 1 8-8 7-8 8-8 7-8 20-20 5-6h2l2-4 12-11 9-6 13-3 22-2h69l50 3 46 5 46 7 39 8 37 9 12 3 24 7 36 12 10 3 12 5 14 5 22 8 11 5 13 5 31 13 20 8 15 7 21 9v-16l2-1v19l6 2 14 7v-2l-4-2-7-11-1-10 2 1 4 11 6 9 2 1 2-4 19-1 10-7-18-1-9-2-2-5 6-2h9l4 2 11-1 5 3 5-2 13-8 11-4h25l64 3 30 1 16 2 4 2-1 9-7 11-11 9-19 9-12 4-16 8-6 2v-2h-16l-2-1-1 2h-38l-16-2-13-4h-2l35 17 25 13 10 4h12l1 3-11 1-17-6-33-17-23-11-19-8-7-3-19-8-13-6-10-4-11-5-6-3-7-2-8-4-14-5v-2l-9-2-12-6-19-7-7-2v-2l-6-1-8-3-10-4-14-4-8-4-9-3-33-12-23-7-6-1v-2l-7-1-45-13-14-3h-7l36 11 13 4 21 7 28 11 27 12 26 14 11 8 7 8 2 3v8l-4 6-7 4-16 4-31 3-18 1-34 1h-119l3 4v16l-3 17-6 19-13 36-6 16-8 20-15 33-9 16-5 6-10 6-9 3-5 1-14 1-243 2h-91v3l63-1 345-3 12-8 13-11 8-8 9-11 13-16 10-13 10-11 7-8 8-8 10-7 15-5 18-4h14l1 3-7 8-13 13-10 14-9 16-10 25-7 26-1 5 9 1 2 1 4-18 9-25 8-17 9-14 11-13 9-9 14-10 17-9 18-6 22-4h39l17 3 11 3 19 8 16 10 10 9 5 5 9 10 9 14 117 2 2-6 11-23 5-5 4-1 68-1-12-11-18-13-8-5 2-1 11 6 16 12 10 9 3 3v2h2v3l-76 1-5 8-8 17v2l4-2 2-6 3-3 8-3 16-2h17l20 1 1 15 16-1 3 1v7h-45v12l14-1 31-1h30l-2-8-11-2v-2l9-5h31l6 4v36l-5 8-8 6-30 21-7 4-4 1-3 10-5 9-1 1-22 1-10 6-7 2h-19l-1 5-4-1-1-1h-15l-6-3-10 2-98 4-35 3-5 2-10 13-10 10-7 5 97 1 22 1 40 1 47 3 24 3 9 2v4l-16 2-29 2-34 2-75 2-26 1-65 1h-1042l-63-1-63-3-18-3-2-1v-3l15-3 19-2 37-2 11-1 57-2 18-1h53v-2l-5-2-12-11-8-8-5-7-18-1h-15l-2 1h-54l-1 1-7-1-5-1-6 4-5 2h-14l-4-4-1-4h-14l-29-2-5-3v-15l2-2 4 1 45-1 22-1 16-2 10-3 8-7 3-8 3-15v-8h-103l2 5 7 12 6 9v2l-2 1-14-1-1-3h-4v-2l4-1-4-10-4-2h4l-4-8-5-1h-9l-4-5-4-4-13-3-1-2h26l70 1 3-8 1-3h-106l-5-5v-11l3-5 4-4 88-1 22-1 3-9 1-2-73 1-5 1v2h-7v-2l-4-1 1-3 20-4 95-1h67l13-14 8-7 13-10 16-9 14-6 18-5 7-1h31l24 5 18 6 19 10 12 9 10 9 7 7 10 13 11 19 8 20 6 21 2 14h48l9 1-3-27-2-24-2-43v-19l2-31 4-22 4-11 7-9 9-6 9-4 18-2 29-1 12-1v-2l6-2-1 3-5 3-21 2-32 2-11 3-8 4-6 5-5 9-3 9-3 19-1 11v65l2 31 3 32h80l254-2 15-1 14-4 8-6 6-8 4-7 8-16 7-17 4-8 5-13 8-20 4-12 12-34 4-17 1-7v-15l-2-5-126-2-109-1h-76l-6-2h-14l-8-3v-2l9 1 17 1 14 1h11l4-1 1-2v-29l-3-5-3-2-7-1h-24l-12 2-4 20-6 7-11 7-8 3-7 1-21-1-32-5-16-4-2-2 4-3h10l12 2 14-1 10-2 5-4 5-3 28-21 13-10 14-11 16-13 14-11 16-13 10-8 10-9 6-4h3l-2-5v-6l-4-1 1-7 2-2z" fill="#080708"/>
<path transform="translate(876,575)" d="m0 0h24l9 2 4 4 1 3v29l-2 3-4 1h-11l-25-2h-11l-4-2v2l10 2h12l8 2h74l109 1 126 2 3 6v15l-3 17-7 21-7 20-7 19-6 16-5 11-7 17-9 19-4 8-7 10-8 7-11 4-5 1-15 1-254 2h-80l-1-1-4-43-1-20v-65l3-24 3-12 4-9 6-7 8-5 9-3 16-2 36-2 7-2 4-2 1-2-3 2h-3v2l-12 2-29 1-18 2-16 8-6 7-5 10-4 20-2 16-1 21v19l2 43 4 44v7l-57-1-2-9-5-20-7-19-8-16-7-11-7-9-9-10-11-10-15-10-19-9-21-6-16-3h-31l-15 3-18 6-17 9-14 10-10 9-8 7-7 8h-160l4-3 22-13 4-2h3v-17l4-18 9-24 7-14 16-5 2-3 11 1 7-2 38-5 37-4 43-3 121-6 17-1h18l28-4 32-5 1-2 30-5 5-1 13 4 29 5 21 2h8l10-2 10-5 9-7 2-3 4-18 3-3z" fill="#CBCBCB"/>
<path transform="translate(948,471)" d="m0 0 6 1 6 7 3 8-2 8-11 12-9 9-7 8-30 30-15 16-2 2 9 1 8-8 7-8 8-8 7-8 20-20 5-6h2l2-4 12-11 9-6 13-3 22-2h69l50 3 46 5 46 7 39 8 37 9 12 3 24 7 36 12 10 3 12 5 14 5 22 8 11 5 13 5 31 13 20 8 15 7 21 9v-16l2-1v19l6 2 14 7v-2l-4-2-7-11-1-10 2 1 4 11 6 9 2 1 2-4 19-1 10-7-18-1-9-2-2-5 6-2h9l4 2 11-1 5 3 5-2 13-8 11-4h25l64 3 30 1 16 2 4 2-1 9-7 11-11 9-19 9-12 4-16 8-6 2v-2h-16l-2-1-1 2h-38l-16-2-13-4h-2l35 17 25 13 10 4h12l1 3-11 1-17-6-33-17-23-11-19-8-7-3-19-8-13-6-10-4-11-5-6-3-7-2-8-4-14-5v-2l-9-2-12-6-19-7-7-2v-2l-6-1-8-3-10-4-14-4-8-4-9-3-33-12-23-7-6-1v-2l-7-1-45-13-14-3h-7l36 11 13 4 21 7 28 11 27 12 26 14 11 8 7 8 2 3v8l-4 6-7 4-16 4-31 3-18 1-34 1h-119l3 4v16l-3 17-6 19-13 36-6 16-8 20-15 33-9 16-5 6-10 6-9 3-5 1-14 1-243 2h-91v3l63-1 133-1h99v1h112l4-1 23-1 5-1 1-3h2l1-6 10-25 7-10 5-8 5-6 2-3h2l2-4 5-5 4 2v7l-6 22-8 20-4 9-3 10 34 1 6 2 6 1-1 7-2 3v-6l-44 1-382 2h-112l-25-1-1 2-2-5v-4h48l9 1-3-27-2-24-2-43v-19l2-31 4-22 4-11 7-9 9-6 9-4 18-2 29-1 12-1v-2l6-2-1 3-5 3-21 2-32 2-11 3-8 4-6 5-5 9-3 9-3 19-1 11v65l2 31 3 32h80l254-2 15-1 14-4 8-6 6-8 4-7 8-16 7-17 4-8 5-13 8-20 4-12 12-34 4-17 1-7v-15l-2-5-126-2-109-1h-76l-6-2h-14l-8-3v-2l9 1 17 1 14 1h11l4-1 1-2v-29l-3-5-3-2-7-1h-24l-12 2-4 20-6 7-11 7-8 3-7 1-21-1-32-5-16-4-2-2 4-3h10l12 2 14-1 10-2 5-4 5-3 28-21 13-10 14-11 16-13 14-11 16-13 10-8 10-9 6-4h3l-2-5v-6l-4-1 1-7 2-2z" fill="#0A0A0A"/>
<path transform="translate(1495,410)" d="m0 0 4 2 3 3v16l-3 15-5 14-5 8-3 16-3 25-7 22v15l-2 9h-9l-21-4v2l6 2 39 16 26 11 5-31 4-11 3-19 3-17v-12l4-23v-14l-3-10-4-6-6-8v-5l5-4 2-1h8l29 6 9 1 10-2 11 1 11 3h17l33-1 1 1h19l3 3 1 2v8l-5 6-5 2-14 2-10 4-4 1h-29l-9 2-8 4-7 6-8 13-6 15-4 19v5l3 2 9-1 12-5 7 1h8l4-1h9l9 5 12 3 6 5 1 5-3 4-6 2-16 2-12 5-15 9-8 2h-13l-8 3h-3l-2 6-3 10-1 7v13l2 4 1-1 1-3 2 5 28 2-5 5-6 4-19 1-2 3-4-2-6-10-3-9 1 9 7 11 3 2v2l-6-2-14-7-1-18-1 16-5-1-23-10-11-5-31-13-21-9-16-6-12-5-20-7-8-3-15-6-31-10-14-5-26-7-16-4-38-9-36-7-40-6-46-5-50-3h-69l-22 2-13 3-11 8-11 10-5 5-9 10-19 19-7 8-8 8-7 8-3 3-10-1 6-7 14-15h2l2-4 29-29 7-8 11-11 4-6 1-6-3-8-5-6-6-1-5 2-1 7 3 1 2 11-9 5-12 11-16 13-13 10-16 13-14 11-15 12-28 21-9 7-7 4-4 2-16 2-11-1-14-2 1-2h2v-4l-13 5-26 6-7 1 2-9 9-25 6-23 2-14 1-14v-18l-2-14-1-13-3-5-8-5-9-16-5-4-5 1-9 6-6 8-8 16-8 10-5 13-10 43-2 14v14l6 23 4 11v2l-39 5-4-1-8-15-3-7-3-19v-20l5-26 5-20 5-10 8-14 4-6 18-20 7-16 6-7 28-13 7-2 8-1h9l13 2 10 4 8 6 10 15 12 20 4 9 3 13 3 32v15l-3 20-7 27-7 19-1 2h6v-2h3l1-3h3v-2h3l1-3h3l1-3 4-3h3l1-3 8-6 2-6 4-36 5-21 3-20 5-12v-26l-3-8v-10l6-8 10-1h41l43 1 16 4 9 6 8 11 7 15v2l22-2 3-1 2 2 2-1 21-1h86l17 1 1 1h11l55 4 5 1v-2l-7-2-8-3 6-7 15-11 8-6 2-2 9-3 16-8 15-1h22l7 3 7-1 8-2 15 1 6 2-1 7-3 4h-2l3 5 1 3-5 7-13 7-4 1h-12l-9-4-8-4-5 2-8 6-14 9-3 4h10l32 5 24 5 8 3 2 7 5 6v2l8 1 18 6h2l-2-1v-14l7-40 1-11 2-4 14-7 13-3 4-5 3-2 5 1 3 5-1 7-3 5-6 26-1 3v16l-8 24v6l4 4 17 5 5 1 22 1 7 1 5 2 7-11 5-18 7-14-1-5-1-6 2-5 4-35 2-5 7-6 6-3h14l6 1 7-7z" fill="#CACACA"/>
<path transform="translate(1253,516)" d="m0 0h10l25 6 41 12v2l10 1 36 12 19 7 9 3 5 3 14 4 10 4 8 3 6 2v2l10 2 20 8 8 4 9 3v2l9 2 8 4 7 3 7 2 11 5 14 6 13 6 21 9 12 5 25 11 48 24 12 4v3 2l9 3 10 6 4 4 11 7 13 10 11 10v1l-69 1-6 2-8 15-7 15-1 2h-52l-65-1-7-10-8-11-6-7-11-9-15-10-18-8-10-3-14-3-7-1h-39l-22 4-18 6-19 10-14 11-10 10-10 13-10 18-8 19-6 19-4 14-9-1-2-1 1-9 6-22 10-25 10-18 11-14 17-17 1-4h-14l-25 6-9 4-6 4-10 9-13 14-11 14-13 16-9 11-11 12-11 10-15 10-91 1-254 2h-63v-3l200-2 134-1 14-1 12-3 9-5 5-5 7-10 12-25 12-29 5-12 7-19 12-33 5-17 2-14v-16l-2-4 119-1 34-1 30-2 25-3 13-4 5-4 2-4v-8l-6-8-8-7-18-10-19-10-33-14-24-9-21-7-25-7-19-6z" fill="#CBCBCB"/>
<path transform="translate(428,330)" d="m0 0 6 1 17 5 15 2h36l30-3h14l11 2 12 6 12 8 6 7 4 8 8 7 7 7 5 8 5 15 2 10 1 17-2 17-5 19-8 20-8 12-12 16-9 8-6 5-16 8-21 10-9-1-12 4h-17l-13 2-5 5-4 11-5 27v25l2 9h-13l-54 8h-13l1-6 9-25 8-37 5-11 1-5 1-20 4-11 1-23 4-23 7-25 6-30 1-7v-28l-1-20-9-20-2-9z" fill="#9FA2A1"/>
<path transform="translate(1495,410)" d="m0 0 4 2 3 3v16l-3 15-5 14-5 8-3 16-3 25-7 22v15l-2 9h-9l-21-4v2l6 2 39 16 26 11 5-31 4-11 3-19 3-17v-12l4-23v-14l-3-10-4-6-6-8v-5l5-4 2-1h8l29 6 9 1 10-2 11 1 11 3h17l33-1 1 1h19l3 3 1 2v8l-5 6-5 2-14 2-10 4-4 1h-29l-9 2-8 4-7 6-8 13-6 15-4 19v5l3 2 9-1 12-5 7 1h8l4-1h9l9 5 12 3 6 5 1 5-3 4-6 2-16 2-12 5-15 9-8 2h-13l-8 3h-3l-2 6-3 10-1 7v13l2 4 1-1 1-3 2 5 28 2-5 5-6 4-19 1-2 3-4-2-6-10-3-9 1 9 7 11 3 2v2l-6-2-14-7-1-18-1 16-5-1-23-10-11-5-31-13-21-9-16-6-12-5-20-7-8-3-15-6-9-4 4-2 13 1 33 13 15 5 8 4 16 6 15 7 12 5 18 8 14 4h6l6-3 2-3-10-1-3 2h-7l-19-7-25-11-46-18v-2l-9-3-24-9-34-13-7-4-14-5-18-6-10-3v-4l8 1 18 6h2l-2-1v-14l7-40 1-11 2-4 14-7 13-3 4-5 3-2 5 1 3 5-1 7-3 5-6 26-1 3v16l-8 24v6l4 4 17 5 5 1 22 1 7 1 5 2 7-11 5-18 7-14-1-5-1-6 2-5 4-35 2-5 7-6 6-3h14l6 1 7-7z" fill="#CACACA"/>
<path transform="translate(560,718)" d="m0 0h15l17 3 17 6 12 8 14 12 10 14 8 16 4 15 1 8v13l-3 18-6 16-7 12-9 11-7 7-13 9-15 7-16 4-11 1h-10l-17-3-16-6-13-8-10-8v-2l-3-1-8-10-8-14-4-11-4-15v-24l4-17 7-16 10-14 10-10 13-9 15-7 16-4z" fill="#070607"/>
<path transform="translate(1008,512)" d="m0 0h47l44 2 41 4 44 6 31 5 1 2-9 26-4 11h-12l-22-1-2 10-1 10v29h-45l-99-1-52-1-1-2 11-27 9-22h-5l3-9 13-30h1v6z" fill="#CBCBCB"/>
<path transform="translate(948,471)" d="m0 0 6 1 6 7 3 8-2 8-11 12-9 9-7 8-30 30-15 16-2 2 9 1 8-8 7-8 17-16 3-2-2 5-5 6-8 7-3 3h-2l-2 4-7 8 8-6 9-8 7-8 12-12 7-8 21-21 10-6 15-3h11l-3 1-1 6 1 5 4 1 4-9h65l37 2 16 1-42-3-76-1v-2l-3-1 2-1h67l37 2 47 4 40 6 24 5 7 3-3 10-15 41-11 28-6 16-2 7h-121l-109-1h-76l-6-2h-14l-8-3v-2l9 1 17 1 14 1h11l4-1 1-2v-29l-3-5-3-2-7-1h-24l-12 2-4 20-6 7-11 7-8 3-7 1-21-1-32-5-16-4-2-2 4-3h10l12 2 14-1 10-2 5-4 5-3 28-21 13-10 14-11 16-13 14-11 16-13 10-8 10-9 6-4h3l-2-5v-6l-4-1 1-7 2-2zm60 41-7 18v-6l-3 4-14 33v2h5l-11 27-9 23 1 1 52 1 99 1h45v-29l2-17 1-3 22 1h12l6-17 7-21-7-2-45-7-42-5-23-2-44-2z" fill="#0A090A"/>
<path transform="translate(717,869)" d="m0 0h12l5 3v-2l12 1h37v2l5-1h34v-2h15l5 5 5 3 30-1 6-6h15l2 2h43l2-2h27l5 5 4 1 14 1h78l1-1h12l10 1 23 1v-2h25l4 1 1-1h59l11 3h14l3-1h9l4 2h7l1 1h7l1-1 8 1v-3h8l16 4 11 10 10 7 3 3h-665l5-5 11-8 9-9 12-3 13-2 9-5z" fill="#FBFBFA"/>
<path transform="translate(713,416)" d="m0 0h9l13 2 10 4 8 6 10 15 12 20 4 9 3 13 3 32v15l-3 20-4 16h-2v-3l-8 3-6 3-10 3-13 4-7 2-3 6-1-4 8-27 3-19 1-14v-18l-2-14-1-13-3-5-8-5-9-16-5-4-5 1-9 6-6 8-8 16-8 10-5 13-10 43-2 14v14l6 23 4 11v2l-39 5-4-1-8-15-3-7-3-19v-20l5-26 5-20 5-10 8-14 4-6 18-20 7-16 6-7 28-13 7-2z" fill="#9FA2A1"/>
<path transform="translate(1406,741)" d="m0 0h13l15 3 16 8 8 6 8 8 8 13 5 15 1 7v16l-4 16-7 13-8 10-14 10-12 6-11 3h-22l-16-5-12-7-10-9-7-8-7-14-4-14v-20l4-15 5-10 8-10 7-7 11-7 11-5z" fill="#070607"/>
<path transform="translate(769,769)" d="m0 0 13 1 37 2 9 1h23l14 1 34 1 7 1 57 1 13 1h31l17 2 60 2h21l22-1 15 1 2 2 1 6-8 11-8 7-11 4-5 1-15 1-254 2h-80l-1-1-2-20v-11l1-11 3-3z" fill="#9DA09F"/>
<path transform="translate(1011,489)" d="m0 0h69l50 3 46 5 46 7 39 8 37 9 12 3 24 7 36 12 10 3 12 5 14 5 22 8 11 5 13 5 31 13 20 8 15 7 21 9v-16l2-1v19l6 2 14 7v-2l-4-2-7-11-1-10 2 1 4 11 6 9 2 1 2-4 19-1 10-7-18-1-9-2-2-5 6-2h9l4 2 11-1 5 3 5-2 13-8 11-4h25l64 3 30 1 16 2 4 2-1 9-7 11-11 9-19 9-12 4-16 8-6 2v-2h-16l-2-1-1 2h-38l-16-2-13-4h-2l35 17 25 13 10 4h12l1 3-11 1-17-6-33-17-23-11-19-8-7-3-19-8-13-6-10-4-11-5-6-3-7-2-8-4-14-5v-2l-9-2-12-6-19-7-7-2v-2l-6-1-8-3-10-4-14-4-8-4-9-3-33-12-23-7-6-1v-2l-7-1-45-13-14-3h-7l13 4-1 3 4 2-10-1-21-5-3 9-18 45-5 11-7 20-6 13h-2l1-7 14-35 17-45 6-14 2-1 8 1-12-3-37-7-21-3-25-3-10-2-36-3-49-2h-68l-15 2 1-2 13-3z" fill="#070607"/>
<path transform="translate(1048,836)" d="m0 0h221l-1 10-5 13-1 2-160-1-1-13-1-2h-15l-1 2-1 11-1 2-245 1-14-1-43-1-24 1-35-1-3 1-4-9-3-12z" fill="#9DA09F"/>
<path transform="translate(1528,421)" d="m0 0h8l29 6 9 1 10-2 11 1 11 3h17l33-1 1 1h19l3 3 1 2v8l-5 6-5 2-14 2-10 4-4 1h-29l-9 2-8 4-7 6-8 13-6 15-4 19v5l3 2 9-1 12-5 7 1h8l4-1h9l9 5 12 3 6 5 1 5-3 4-6 2-16 2-12 5-15 9-8 2h-13l-8 3h-3l-2 6-3 10-4-1-22-11-7-3-4-2h-5v-11l4-11 3-19 3-17v-12l4-23v-14l-3-10-4-6-6-8v-5l5-4z" fill="#9FA2A1"/>
<path transform="translate(296,740)" d="m0 0h114v1l6 1v6l2-5 3-1h17l-1 10-8 40-2 12-2 21-4 38-4 6-7 3h-14l-12-3 1-4 1-3 1-14-4-1 9-4 6-7 4-15 1-6v-8h-103l2 5 7 12 6 9v2l-2 1-14-1-1-3h-4v-2l4-1-4-10-4-2h4l-4-8-5-1h-9l-4-5-4-4-13-3-1-2h26l70 1 3-8 1-3h-106l-5-5v-11l3-5 4-4 88-1 22-1 3-9 1-2-73 1-5 1v2h-7v-2l-4-1 1-3z" fill="#070607"/>
<path transform="translate(1243,527)" d="m0 0 11 2 36 10 37 12 15 6 16 6 23 10 13 7 1 2-24-3h-8l17 8 17 11 7 8-2 2-27 3-35 2-83 1h-35l-6-1v-14l5-2 1-7-2-4 1-6 15-39z" fill="#7E7F7F"/>
<path transform="translate(1402,720)" d="m0 0h22l15 3 15 6 11 7 13 11 8 10 8 14 6 18 2 14v10l-2 14-4 13-8 16-9 12-7 7-11 8-16 8-10 3-8 2-9 1h-12l-17-3-13-5-11-6-13-10-7-7-9-13-6-12-4-13-2-12v-14l3-18 5-13 8-14 9-11 9-8 14-9 15-6zm4 21-14 3-16 8-9 7-7 7-7 10-5 13-2 9v20l5 16 6 12 11 12 9 7 12 6 13 4h22l16-5 13-8 9-7 10-14 5-11 3-13v-16l-3-14-5-12-8-11-9-9-14-8-11-4-11-2z" fill="#C9CAC9"/>
<path transform="translate(1532,760)" d="m0 0h81l33 1v58h52l34-1-6 7-16 13-7 5h-27l-4-1h-26l-13 1-40-2h-41l-1 3-1-3-3-27-5-24-7-20z" fill="#CACACA"/>
<path transform="translate(560,718)" d="m0 0h15l17 3 17 6 12 8 14 12 10 14 8 16 4 15 1 8v13l-3 18-6 16-7 12-9 11-7 7-13 9-15 7-16 4-11 1h-10l-17-3-16-6-13-8-10-8v-2l-3-1-8-10-8-14-4-11-4-15v-24l4-17 7-16 10-14 10-10 13-9 15-7 16-4zm4 9-15 2-14 5-11 6-11 9-7 7-10 15-5 11-3 9-1 6v22l4 16 8 16 7 9 10 10 12 8 2-1-11-8-11-11-9-14-6-16-2-10v-17l3-16 5-13 9-14 8-8 13-9 13-6 13-3 14-1-2 2-14 2-8 3v3h11l-16 5-13 8-10 9-8 11-5 10-4 15v15l3 15 5 12 8 11 9 9 11 7 14 6 4 1h28l13-5 13-7 11-10 7-10 6-12 3-13v-20l-4-15-3-5-2-5-10-13-11-9-15-7-6-2-2-1h10l-8-8 10 2 15 8v6l2 1 5-3 10 9 9 13 5 12 4 15 1 8v10l-3 15-6 16-7 11-11 12-11 8 2 1 11-8 9-8 9-12 7-15 3-13 1-17-3-17-5-12-7-12-8-10-9-9-11-7-13-6-12-3-8-1z" fill="#C4C4C4"/>
<path transform="translate(984,561)" d="m0 0 6 1 73 1 82 2 24 1-3 21v29h-45l-99-1-52-1-1-2 11-27 9-22h-5z" fill="#7E7F7F"/>
<path transform="translate(518,367)" d="m0 0h9l11 6 10 13 6 12 2 14v15l-4 20-10 30-5 5-6 16-7 2-2 4-6 5-10 4h-14l-10-3-1-2v-10l7-34 5-26-1-7 8-24 7-30 3-6 5-3z" fill="#FEFEFD"/>
<path transform="translate(836,427)" d="m0 0h41l43 1 16 4 9 6 8 11-1 4-8 1-9 4-13 5-6 4v4l-3-1-5-5h-31l-7 3-4 9-8 33-1 5-9 2-18 8-17 9-2 3v-7l4-18 3-20 5-12v-26l-3-8v-10l6-8z" fill="#9FA2A1"/>
<path transform="translate(853,617)" d="m0 0h2l-1 3-5 3-21 2-32 2-11 3-8 4-6 5-5 9-3 9-3 19-1 11v65l2 31 3 32h80l254-2 15-1 14-4 8-6 6-8 4-7 8-16 7-17 4-8 5-13 8-20 4-12 12-34 4-17 1-7v-15l-1-4 4 2v16l-3 17-6 19-13 36-6 16-8 20-15 33-9 16-5 6-10 6-9 3-5 1-14 1-243 2h-91v3l63-1 133-1h99v1h112l4-1 23-1 5-1 1-3h2l1-6 10-25 7-10 5-8 5-6 2-3h2l2-4 5-5 4 2v7l-6 22-8 20-4 9-3 10 34 1 6 2 6 1-1 7-2 3v-6l-44 1-382 2h-112l-25-1-1 2-2-5v-4h48l9 1-3-27-2-24-2-43v-19l2-31 4-22 4-11 7-9 9-6 9-4 18-2 29-1 12-1v-2z" fill="#303030"/>
<path transform="translate(1007,504)" d="m0 0h65l37 2 24 2 29 2 26 4 21 3 11 3-3 9-2 1-44-7-39-5-33-3-44-2-47-1-3 11-4 9-1-3v-3l-2 2-1-2-5 8-3 7-6 17-4 15-11 25-6 16-1 1h-22l-6-9-8-14-2-12-2-4 11-11 1-2h-11l2-4 49-49 7-3 16-2v2l3 1 1 4 3 1z" fill="#3C3D3D"/>
<path transform="translate(555,678)" d="m0 0h28l18 3 20 6 16 8 15 9 11 9 10 9 11 11 7 10 9 15 4 8h40l9 2 3 4 2-2 4 44v7l-57-1-2-9-5-20-7-19-8-16-7-11-7-9-9-10-11-10-15-10-19-9-21-6-16-3h-31l-15 3-18 6-17 9-14 10-10 9-8 7-7 8-56-1v-1h46l2-4 12-13 13-11 15-10 15-8 21-8 21-5z" fill="#9C9F9E"/>
<path transform="translate(1629,587)" d="m0 0h25l64 3 30 1-2 2 12 1 2 1-1 7-7 8-12 6-19 5-22 3-41 3h-43l-17-2-11-4-3-3 1-5 9-6-18-1-9-2-2-5 6-2h9l4 2 11-1 5 3 5-2 13-8z" fill="#313131"/>
<path transform="translate(1495,410)" d="m0 0 4 2 3 3v16l-3 15-5 14-5 8-3 16-3 25-7 22-2 3-18-4-11-3-8-3-7-1 1-7 4-15 7-14-1-5-1-6 2-5 4-35 2-5 7-6 6-3h14l6 1 7-7z" fill="#9FA2A1"/>
<path transform="translate(1305,707)" d="m0 0h14l1 3-7 8-13 13-10 14-9 16-10 25-7 26-1 5 9 1 2 1v2h-8l-4-2-31-1-3-1 2-10 7-16 7-20 4-15v-7h-4-2l-2 4-5 6-8 10-6 10-5 8-8 21-2 6h-2l-1 4-5 1-23 1-4 1h-144v-1l54-2 91-1 12-8 13-11 8-8 9-11 13-16 10-13 10-11 7-8 8-8 10-7 15-5z" fill="#1C1C1C"/>
<path transform="translate(270,802)" d="m0 0 4 2 3 3h8l6 2 3 6 1 4 4 11h-5v2h4l1 2 16 1-10-16-6-10 1-3h104v9l-4 19-4 6-7 6-16 4-10 1-54 2h-13l-2-2-4-12-5-8-8-15z" fill="#9DA09F"/>
<path transform="translate(940,475)" d="m0 0h1l1 6 3 1 2 11-9 5-12 11-16 13-13 10-16 13-14 11-15 12-28 21-9 7-7 4-4 2-16 2-11-1-14-2 1-2h2v-4l-13 5-26 6-7 1 2-9 5-13 3-3 3-4 14-3 10-4 9-3 7-3h3l1 7-7 21-3 7 10-2 18-13 13-9 17-12 18-13 16-11 17-12 18-13 20-14 19-14 5-4-2-1z" fill="#ccc"/>
<path transform="translate(1631,807)" d="m0 0h14l1 12h52l34-1-6 7-16 13-7 5h-27l-4-1h-26l-13 1-40-2h-41l-1 3-1-3-1-17 2 2 3-4 16-3 8-4 24-5z" fill="#9DA09F"/>
<path transform="translate(369,641)" d="m0 0 9 1-1 6h-2l-1 5-8 15-4 10-6 13-6 14-4 8v3l4-5h2v-2l6-3 9-1h11l5 1h16l14-2-1 7-13 28-8 1h-93l4-3 22-13 4-2h3v-17l4-18 9-24 7-14 16-5z" fill="#9DA09F"/>
<path transform="translate(1243,527)" d="m0 0 11 2 36 10 37 12 15 6 16 6 23 10 13 7 1 2-24-3-5-1-63-5-66-4-10-1 1-6 10-25z" fill="#CACACA"/>
<path transform="translate(421,742)" d="m0 0h17l-1 10-8 40-2 12-2 21-4 38-4 6-7 3h-14l-12-3 1-4 1-3 1-14-4-1 9-4 6-7 4-15 1-6v-8h-103l-2 1-2-6 31-1h74l5 1 5-30 6-28z" fill="#1D1D1D"/>
<path transform="translate(944,493)" d="m0 0 5 1-1 4-7 8-43 43-7 8-19 19-8 2-4 20-6 7-11 7-8 3-7 1-21-1-32-5-16-4-2-2 4-3h10l12 2 14-1 10-2 5-4 5-3 28-21 13-10 14-11 16-13 14-11 16-13 10-8 10-9z" fill="#7E7F7F"/>
<path transform="translate(721,849)" d="m0 0h115l79 1h157l8 1 1 2 2-4v9l-1 2-245 1-14-1-43-1-24 1-35-1-3 1-3-7z" fill="#7E7F7F"/>
<path transform="translate(1403,728)" d="m0 0h20l16 4 16 8 13 10 7 7 8 12v-3l-7-10-6-8-1-2 4 2 7 8 9 14 5 12 4 10 3 2 1 9v10h-1v-5l-6 1-5 24-6 14-9 12-9 9-2-1 7-7 10-16 6-15 2-9v-7l-1 5-7 1-1-3-2-22-5-15-9-14-9-9-14-8-11-4-11-2h-13l-14 3-16 8-9 7-8 9-5 1-8 20-3 5h-2v-11l-2 4-2 12v21l4 15 7 14 9 12 5 6-4-2-9-9-9-14-5-14-2-11v-21l3-12 8-16 10-14 10-10 14-9 11-5z" fill="#979A99"/>
<path transform="translate(990,515)" d="m0 0 1 3-10 25-6 16-12 29-10 26-1 1h-13l-6-9-8-14-2-12-2-4 11-11 1-2h-11l2-4 32-32 1 4 3 3 7-7 9-6 8-4z" fill="#7D7E7E"/>
<path transform="translate(1402,685)" d="m0 0h21l19 2 28 6 15 6 17 9 12 9 9 8 5 6 4 7 7 11v1h-6v-2l-4-2-12-13-4-4v-2l-4-2-9-8-12-7-13-6h-4l-11-4-19-4-7-1h-39l-22 4-18 6-19 10-14 11-10 10-10 13-10 18-8 19-6 19-4 14-9-1-2-1 1-9 6-22 10-25 4-8 4 1 2-5 13-17 15-16 4-3h2v-2l4-1v-2l6-2v-2l19-9 20-6 17-3z" fill="#9EA1A0"/>
<path transform="translate(1123,839)" d="m0 0 101 1 16 1h17l7 2 2 7-3 9-1 2-160-1-1-15 3-5z" fill="#9DA09F"/>
<path transform="translate(1061,417)" d="m0 0 10 1 16 7 15 7 13 4 8 9 4 7-1 3-15 1-5 1-17 1-10-6-18 2-9 4-3 1-40-2-6-1 2-4 16-16 11-7 14-7 9-4z" fill="#ccc"/>
<path transform="translate(1241,425)" d="m0 0h22l7 3 7-1 8-2 15 1 6 2-1 7-3 4h-2l3 5 1 3-5 7-13 7-4 1h-12l-9-4-8-4-5 2-8 6-5-1-8-3-16-4-18-5-4 1-9 5 1-3 14-10 6-5 9-3 16-8z" fill="#A0A3A2"/>
<path transform="translate(1011,489)" d="m0 0h69l50 3 46 5 46 7 39 8 37 9 12 3 24 7 36 12 10 3 12 5 14 5 22 8 11 5 13 5 31 13 20 8 15 7 21 9v-16l2-1v19l6 2 12 6 4 1 2 3-6-1-15-7-16-7-6-3-7-2-8-4-14-5v-2l-9-2-12-6-19-7-7-2v-2l-6-1-8-3-10-4-14-4-8-4-9-3-33-12-23-7-6-1v-2l-7-1-45-13-14-3h-7l13 4-1 3 4 2-10-1-21-5-3 9-18 45-5 11-7 20-6 13h-2l1-7 14-35 17-45 6-14 2-1 8 1-12-3-37-7-21-3-25-3-10-2-36-3-49-2h-68l-15 2 1-2 13-3z" fill="#3C3D3D"/>
<path transform="translate(877,464)" d="m0 0h31l5 4 7 14 3 9 5-3-1 3-4 3h-3v2l-4 1v2h-3v2h-3v2h-3v2h-3l-1 3h-3v2l-7 5h-3v2h-3l-1 3h-3v2l-9 5-11 8-8-1-1-2 3-22 9-36 4-7z" fill="#FDFDFC"/>
<path transform="translate(1157,784)" d="m0 0h43l1 1-1 7-2 6-11 10-15 10-91 1-254 2h-63v-3l200-2 134-1 14-1 12-3 9-5 5-5 6-9h2l5-5z" fill="#9C9F9E"/>
<path transform="translate(1634,605)" d="m0 0h34l20 1h26l11 1 14 3h10v2l-12 5-16 4-22 3-41 3h-43l-17-2-11-4-3-3 1-5 6-4 5-1 7-2z" fill="#3D3E3E"/>
<path transform="translate(990,493)" d="m0 0h68l49 2 44 4 2 1 41 5 32 6 2 2 5 2-2 9-15 37-5 13-4 9-6 18-4 10-4 9 2 2h-51v-1h47l1-7 6-16 15-39 14-38 1-2-16-4-33-6-33-4-51-4-22-1h-67l1 3h76l42 3 19 2v1h-11l-24-2-37-2-65-1-3 9-2 2-4-4-1-6 2-4h-8l-15 3-10 6-26 26-7 8-12 12-7 8-11 9-2-1 9-10 8-8h2l2-4 5-5 2-4-8 8v-3l25-25 5-6h2l2-4 12-11 6-4z" fill="#1C1B1C"/>
<path transform="translate(560,718)" d="m0 0h15l17 3 17 6 12 8 14 12 10 14 8 16 4 15 1 8v13h-1l-1-5-4 1-3-2-4-20-5-12-7-12-8-10-8-8-11-7-13-6-12-3-8-1h-9l-15 2-14 5-11 6-11 9-9 10-9 15-6 16-1 6-1 18h-1l-1-14-2 6-3 1v-13l4-15 6-14 9-13 9-10 11-9 10-6 3-2 2-2 14-4z" fill="#9EA09F"/>
<path transform="translate(1374,423)" d="m0 0 5 1 3 5-1 7-3 5-6 26-1 3v16l-3 10h-2l-4-4-14-4-10-4-5 1v-8l4-22 1-11 2-4 14-7 13-3 4-5z" fill="#A0A3A2"/>
<path transform="translate(1770,755)" d="m0 0h31l3 3-1 19-1 5-3 2-5 1h-9l-5-2-1 8-2 2-33 1h-38l-1-4 1-8 1-1h21l13-1h16l5-1h-56l-1-3 41-2-2-2h30l-2-8-11-2v-2z" fill="#1B1B1B"/>
<path transform="translate(1730,818)" d="m0 0 2 1-8 8-17 13-4 3h-27l-4-1h-26l-13 1-40-2h-41l-1 3-1-9 5-5h141l1-10 1-1z" fill="#7E7F7F"/>
<path transform="translate(1048,836)" d="m0 0h221l-1 10-2 4h-1l-2-7-11-1h-13l-17-1-99-1h-19l-2 5h-2v-2h-15l-10-2h-126l-233 2h-2l-1 2-2-6z" fill="#C7C7C7"/>
<path transform="translate(1402,720)" d="m0 0h22l15 3 15 6 11 7 13 11 8 10 8 14 6 18v5l-4-4-7-18-7-12-9-11-2-1 3 3 3 5 7 10 1 3h-3l-10-14-11-10-13-8-15-6-10-2h-20l-16 4-16 8-10 8-8 8-10 15-7 16-2 9-1 17h-1l-1-11-2 5-3-2-1 10h-1v-14l3-18 5-13 8-14 9-11 9-8 14-9 15-6z" fill="#9DA09F"/>
<path transform="translate(1008,512)" d="m0 0h47l44 2 41 4 24 3v1h-7v2l-7 2-18 1h-120l-4-2-2-2-1-3z" fill="#9C9F9E"/>
<path transform="translate(369,641)" d="m0 0 5 1 2 2-26 52-4 10-7 11h-1v-8l-5 11v5l5 5-6 9-2 1h-32l4-3 22-13 4-2h3v-17l4-18 9-24 7-14 16-5z" fill="#9D9F9F"/>
<path transform="translate(850,515)" d="m0 0h6l-1 18 8 2-4 4-22 15-19 14-14 10-4 3-2-1 7-6 3-23 2-18h3l17-9 12-5z" fill="#CBCBCB"/>
<path transform="translate(990,515)" d="m0 0 1 3-10 25-6 16-2 3h-51l6-7 28-28 1 4 3 3 7-7 9-6 8-4z" fill="#CACACA"/>
<path transform="translate(1448,740)" d="m0 0 4 1 11 7 11 10 5 5 4 6v-3l-7-10-6-8-1-2 4 2 7 8 9 14 5 12 4 10 3 2 1 9v10h-1v-5l-6 1-5 24-6 14-9 12-9 9-2-1 7-7 10-16 6-15 2-9v-7l-1 5-7 1-1-3-2-22-5-15-9-14-9-9-11-7 4-4 1-3z" fill="#9C9F9E"/>
<path transform="translate(1606,639)" d="m0 0 7 1 10 3 16 2h38l5-1h12l3 2 8-4 2 1-7 7-7 12-3 12-4 1h-8l-18-8-39-20-15-7z" fill="#9DA09F"/>
<path transform="translate(1667,727)" d="m0 0h75l1 3v25h-18l-1-4v-11h-37l-16 2-10 3-2 9-5 2-1-3 11-23z" fill="#9B9E9D"/>
<path transform="translate(1105,851)" d="m0 0h143l13 1 2 1 1 4-2 4-160-1v-8z" fill="#7E7F7F"/>
<path transform="translate(1357,768)" d="m0 0 1 2-5 9-4 10-2 9v20l5 16 6 12 11 12 8 6 12 6 3 2v3l5 2 2 2-1 6h23l18-4 3 1-12 4-17 2-17-2-18-6-5-3-4-4-5-2-10-11-10-15-6-15-2-9v-21l3-16h3l-1 11 3-3 4-10 6-12z" fill="#BFC0C0"/>
<path transform="translate(564,727)" d="m0 0h9l17 3 12 5 11 6 12 11 7 8 8 13 5 11 3 12 1 16-2 14-4 13-7 13-11 13-14 11-4 1 4-4 9-7 10-11 7-12 6-18 2-11v-10l-3-17-6-16-7-11-9-10-5-3-5 3-1-1v-6l-15-8-10-2 8 8h-47v-3l8-3 14-2 2-2-14 1-16 4-15 8-11 9-8 9-8 14-4 13-2 12v17l4 16 5 12 9 13 12 12 9 6-2 1-13-9-12-12-7-11-6-13-3-14v-22l3-12 5-12 9-14 9-10 11-9 16-8 9-3z" fill="#1B1B1B"/>
<path transform="translate(948,471)" d="m0 0 6 1 6 7 3 8-2 8-11 12-9 9-7 8-30 30-15 16-2 2 9 2v1l-25 1 25-25 7-8 43-43 2-3-1-4-2-5v-6l-4-1 1-7 2-2zm-18 68 1 2-7 9-8 7-3 3-5 3-3 2 2-4 10-10 8-7z" fill="#0A090A"/>
<path transform="translate(1489,805)" d="m0 0h1v15l-4 15-8 16-8 11-8 9-13 8-4 2-24 5h-17l-6-1v-6l-6-4v-2l-2-1 9 1 3 1h22l16-5 13-8 8-6 10-14 5-11 3-13 2-1v3l7-1z" fill="#C4C5C5"/>
<path transform="translate(274,744)" d="m0 0 2 1-1 2h5l-1 3h7l-1-3 6-1h73l-2 10-2 2-22 1h-88v-5l5-3 13-4h6z" fill="#C7C7C7"/>
<path transform="translate(564,730)" d="m0 0 8 1-4 2-1 1-14 2-8 3v1h20v1l-13 2-14 5-11 7-10 9-7 10-5 10-4 15v15l3 17-3 3-4-2-3-5-2 1-2-10v-17l3-16 5-13 9-14 9-9 13-9 13-6 13-3z" fill="#9C9F9E"/>
<path transform="translate(772,565)" d="m0 0h4l1 7-7 21-3 7h6v2l-10-1 1-2h2v-4l-13 5-26 6-7 1 2-9 5-13 3-3 3-4 14-3 10-4 9-3z" fill="#CBCBCB"/>
<path transform="translate(994,505)" d="m0 0h2l1 4-2 4v4l3-2-1 7h2l1-2-1 8-2-2-5 8-3 7-6 17-4 15-11 25-6 16-1 1h-7l-1-4 20-50 5-13 5-12 7-18v-2l-12 5-8 5-10 9-4-4v-5l8-7 9-9 7-3z" fill="#1E1E1E"/>
<path transform="translate(1061,417)" d="m0 0 10 1 16 7 15 7 13 4v2h-18l-8 2-21 1-25-1-13-1-7-1-6 4 2-4 11-8 16-8 9-4z" fill="#A0A3A2"/>
<path transform="translate(1006,499)" d="m0 0h67l37 2 47 4 40 6 24 5 7 3-3 10-15 41-11 28-6 16-2 7h-7l4-6 8-21 14-38 5-11 9-25h-7l-19-4-21-3-52-6-42-3-76-1v-2l-3-1z" fill="#050405"/>
<path transform="translate(1305,707)" d="m0 0h14l1 3-7 8-13 13-10 14-9 16-10 25-8 29-1 2h-10l5-6 4-13 3-8 10-29 8-16 6-14v-5l-8-4-8 1-7 3-3-1 5-6 10-5 18-5z" fill="#090809"/>
<path transform="translate(1297,495)" d="m0 0 4 2 3 4v6l8 1 16 6 16 5 16 8 27 10 26 10 7 3v2l5 1 28 11 27 11 21 9 9 3h7l3-2 6 1 4 1-2 4-6 3-11-1-19-7-17-8-17-7-11-5-12-5-7-3-13-4-41-16-30-11-31-12-9-5-5-5-2-4z" fill="#858686"/>
<path transform="translate(1140,648)" d="m0 0h10l8 2 5 4 7-1h12l5 4 1 2v6l-5 6-2 1h-10l-9-1-8 5h-12l-7-2v-1l16 1 8-3 3-5-8 1v-1l-25-1v2h-14l-3-2v-5l4-3 9-1 7-6z" fill="#131213"/>
<path transform="translate(249,784)" d="m0 0h105l-2 10-2 2-72-1h-26l-2-2z" fill="#9A9D9C"/>
<path transform="translate(584,733)" d="m0 0h7l19 9v7l6-3 11 10 9 13 5 12 4 15 1 8v10l-1 7-2-2-3 1-4-2-1-2-1-18-4-15-3-5-2-5-10-13-10-8-15-7-7-2-1-1-10-1v-1h19l-7-5z" fill="#9C9F9E"/>
<path transform="translate(493,826)" d="m0 0 8 8 1-3 3 1 7 14 11 12 11 8 11 5 9 3h32l-4 3-8 4v2l3 2-1 1h-21l-15-4-10-4-11-8-12-12-9-14-5-13z" fill="#C9C9C9"/>
<path transform="translate(660,581)" d="m0 0 2 4 7 21v2l-39 5-4-1-8-15-1-4 2-4 11-1 24-4h5z" fill="#CBCBCB"/>
<path transform="translate(1687,739)" d="m0 0h17l20 1 1 15h13v1h-48l-5 1h-32v-3l3 1 2-2 2-6 3-3 8-3z" fill="#303030"/>
<path transform="translate(943,482)" d="m0 0h2l2 11-9 5-12 11-16 13-13 10-16 13-14 11-15 12-28 21-9 7-2-1 5-5 6-7 5-5 17-14 15-12 11-9 4-3h2v-2l10-8 10-9 11-9 14-12 16-12 5-1z" fill="#9DA09F"/>
<path transform="translate(368,743)" d="m0 0h4l-1 9-5 15-6 24-1 3-4-1 3-17 3-11v-5l-3 4h-65v15h-3v-7l-14 1-2 2-2 7h-5v-8l1-3-1-1v-7l15-1h12v-2h-37v3l-6 1v-2l-2-1 1-2 88-1 22-1 3-9 2 1 2-5z" fill="#202020"/>
<path transform="translate(635,816)" d="m0 0 5 3h3l1-2v8l-6 18-8 13-11 12-12 9-14 6-6 2-11 1-3-3 2-4 9-4v-2l11-4 13-7 10-9 7-10 6-12z" fill="#C8C8C8"/>
<path transform="translate(465,596)" d="m0 0h1l1 22 2 9h-13l-54 8h-13l1-6 3-8 1 3 2-1 21-3 29-6 12-3h7z" fill="#CBCBCB"/>
<path transform="translate(1311,525)" d="m0 0 16 4 13 4 30 10 10 3 12 5 14 5 22 8 11 5 13 5 31 13 20 8 15 7 21 9v-16l2-1v19l6 2 12 6 4 1 2 3-6-1-15-7-16-7-6-3-7-2-8-4-14-5v-2l-9-2-12-6-19-7-7-2v-2l-6-1-8-3-10-4-14-4-8-4-9-3-33-12-23-7-6-1v-2l-7-1-17-5 2-2z" fill="#3F4040"/>
<path transform="translate(1371,540)" d="m0 0 14 1 33 13 15 5 8 4 16 6 15 7 12 5 18 8 14 4 8 1-5 4-1 3 2 1-6-1-57-24-15-6-13-5-9-4-20-7-8-3-15-6-9-4z" fill="#EBEBEA"/>
<path transform="translate(991,500)" d="m0 0h11l-3 1-2 6-1-2-2 1-14 2-8 4-14 14h-2l-2 4-31 31-1 2h11l-2 4-9 9 2 4v5l-2-3-5-5h-3l3 7v12h-1l-1 12h-1l-1-24-3-5-3-2-11-2 6-7 8-8v3l-8 9 8-6 9-8 7-8 12-12 7-8 21-21 10-6z" fill="#090809"/>
<path transform="translate(860,588)" d="m0 0h1l-1 10-6 7-11 7-8 3-7 1-21-1-32-5-16-4 1-3 9-1 16 3h12l2-2 7-1 39-1 10-8z" fill="#0C0C0C"/>
<path transform="translate(1197,624)" d="m0 0 4 2v16l-3 17-6 19-13 36-6 16-8 20-15 33-9 16-5 6-10 6-9 3-5 1-14 1-143 1h-137v-1l26-1 254-2 15-1 14-4 8-6 6-8 4-7 8-16 7-17 4-8 5-13 8-20 4-12 12-34 4-17 1-7v-15z" fill="#303030"/>
<path transform="translate(1720,631)" d="m0 0h13l-3 2-12 4-16 8-6 2v-2h-16l-2-1-1 2h-38l-16-2-13-4-5 1-5-3v-1l66-1 27-2z" fill="#3D3E3E"/>
<path transform="translate(300,764)" d="m0 0h58l-4 15-1 1-35 1h-14l-5-1-1-2v-10l5-2z" fill="#1C1C1C"/>
<path transform="translate(257,760)" d="m0 0h37v2l-12 1h-15l1 7 1 2-2 10h5l1-7 3-3h14v7h3v-15h1l1 19h59v1h-106l-5-5v-11l3-5 5-1v2l6-1z" fill="#161616"/>
<path transform="translate(955,816)" d="m0 0h118v1l8 1v1l-254 2h-63v-3z" fill="#8E9090"/>
<path transform="translate(1243,527)" d="m0 0 11 2 36 10 34 11v6l-8 2-7-1-39-12-31-8 3-9z" fill="#7F8080"/>
<path transform="translate(1186,530)" d="m0 0h15l13 5-3 11-3 8-1-2-6 4h-20l-8-1 1-8 6-12z" fill="#9DA09F"/>
<path transform="translate(1706,698)" d="m0 0 5 2 11 8 13 11 3 4-43-1-4-2-25-2 2-4 3-2h3l-1-7-2-1 5 1 15 5h15z" fill="#FCFCFB"/>
<path transform="translate(1402,607)" d="m0 0 6 1-2 2-13 2-12 1-2 1-36 3-28 1h-90l-19-1v-4h51l83-1 35-2z" fill="#1F2020"/>
<path transform="translate(756,604)" d="m0 0 19 5 32 5 13 1 7 2 22 1v3l-10-1-39-1-11-1-22 1-19 1-13-4-12-2v-3l6-2z" fill="#C5C5C5"/>
<path transform="translate(1744,760)" d="m0 0 1 2h10l5 1 1-2 9 2 3 3 1 6-61 2h-14v-12h45z" fill="#C4C4C4"/>
<path transform="translate(369,641)" d="m0 0 5 1 2 2-26 52h-3v-3h-3l1-5 2-3 4 1v-4l-4 2 2-6 1-5-6-1-2-1 1-5 7-16 10-4 8-3z" fill="#CACACA"/>
<path transform="translate(1010,463)" d="m0 0h86l14 1-1 5-1 1h-122l-1-5 4-1z" fill="#ccc"/>
<path transform="translate(1746,797)" d="m0 0h27v7l-3 3-71 2v-10l15-1z" fill="#CDCDCD"/>
<path transform="translate(1698,830)" d="m0 0h1v13l6-1-1 2-17 1-137 3v-7l4-1h44l41 2 11-1h25l1 1 22 1z" fill="#3D3D3D"/>
<path transform="translate(341,851)" d="m0 0h14v1l-12 1 3 3 1 3v11l-3 1-33-2-2-1v-9l2-5-2-2z" fill="#1F1F1F"/>
<path transform="translate(721,858)" d="m0 0 36 1 24-1 42 1 23 1 234-1 2 1 1-2v3l-365 2-1-4z" fill="#3B3C3C"/>
<path transform="translate(889,622)" d="m0 0 11 7 16 6 10 5-1 4-4 2h-12l-11-2-7-3-13-4-21-4-3-3v-7l2 3 1 3 2 1h26l3-1z" fill="#404141"/>
<path transform="translate(1469,746)" d="m0 0 4 2 7 8 9 14 5 12 4 10 3 2 1 9v10h-1v-5l-6 1-5 24-6 14-9 12-9 9-2-1 7-7 10-16 6-15 2-9v-23l-4-16-5-12-3-5 1-2 5 7v-3l-7-10-6-8z" fill="#9A9D9C"/>
<path transform="translate(1312,703)" d="m0 0 7 2 1 1h7l7-2v2l-3 2h-3v2l-4 1v2l-6 4-8 8-7 8-12 16-3 5-3 1 1-5 7-11 9-11 16-16 1-4h-14l-25 6-9 4-6 4-10 9-13 14-9 11-2 1v-8l29-29 14-8 16-5 14-3z" fill="#F5F5F4"/>
<path transform="translate(1268,522)" d="m0 0 8 1 24 7 26 9 28 11 27 12 7 4-1 3-9-3-21-9-29-11-56-18-3-2 1-1-2-1z" fill="#1F1F1F"/>
<path transform="translate(1629,587)" d="m0 0h25l64 3 30 1-2 2 12 1 2 1v5l-1-3-18-1-41-2-40-1h-29l-13 3-6 3-3-1 5-5 11-5z" fill="#1F1F1F"/>
<path transform="translate(1175,505)" d="m0 0 13 1 19 3 14 1 5 1 2 2 5 2-2 9-15 37-5 13-4 9-6 18-4 10-4 9 2 2h-51v-1h47l1-7 6-16 15-39 14-38 1-2-16-4-37-7z" fill="#1B1B1B"/>
<path transform="translate(1085,844)" d="m0 0h15l2 3v14h20v1l-70 1h-99l1-2h129v-14z" fill="#050405"/>
<path transform="translate(1403,728)" d="m0 0h20l16 4 16 8 13 10 7 7 2 5-5-5-9-8-14-9-13-5-8-2-10-1h-11l-11 1v3l8-2h19l13 4 1 2-36 1-5 1-5-3v-5l-16 7-12 8-4 4-2-1 7-7 14-9 11-5z" fill="#131313"/>
<path transform="translate(1207,787)" d="m0 0h2l-2 5-10 11-4 7-2 7-2 1h-14v2l-4 1h-144v-1l54-2 91-1 12-8 13-11 8-8z" fill="#151515"/>
<path transform="translate(299,806)" d="m0 0h105v9l-1-3-33 1-67-1-4-3z" fill="#7E7F7F"/>
<path transform="translate(1444,867)" d="m0 0 3 1-2 4-5 3 5 2 2 1-8 4-18 4h-17l-6-1v-6l-6-4v-2l-2-1 9 1 3 1h22l16-5z" fill="#F6F6F5"/>
<path transform="translate(1496,849)" d="m0 0h2l-2 6-9 13-13 13-13 9-10 5-20 7-6 1h-25l-16-4-16-7-13-9v-2l5 1 13 8 14 5 5 2 7 1h30l17-5 19-10 9-7 14-14z" fill="#343535"/>
<path transform="translate(1409,548)" d="m0 0 11 3 28 11 32 13 21 9 9 3h7l3-2 6 1 4 1-2 4-6 3-11-1-19-7-17-8-17-7-11-5-12-5-7-3-7-2v-2l-9-3z" fill="#292A2A"/>
<path transform="translate(813,863)" d="m0 0h111l13 1v3h-124z" fill="#323333"/>
<path transform="translate(960,819)" d="m0 0h99v1l-32 1-67 1-36 1h-116l1-2 18-1z" fill="#262626"/>
<path transform="translate(1239,516)" d="m0 0 20 2 10 3-1 3 4 2-10-1-21-5-3 9-18 45-5 11-7 20-6 13h-2l1-7 14-35 17-45 6-14z" fill="#2B2C2C"/>
<path transform="translate(1641,845)" d="m0 0h23l-5 4-37 2-71 2v-3l13-1-3-2z" fill="#1C1C1C"/>
<path transform="translate(348,802)" d="m0 0h41l16 1v9h-1l-1-5h-103l-2 1-2-5z" fill="#3D3E3E"/>
<path transform="translate(1692,762)" d="m0 0h3l1 3 3-3 1 12v24h14v1h-15v10l8-1 35-1h27l-4 3-2 1-23 2-42 1-1-39-4 3z" fill="#727373"/>
<path transform="translate(1606,639)" d="m0 0 7 1 10 3 16 2h38l5-1h12l3 3-4 4h-36l-5 2-11 1-19-9-4-1-2 1-10-5z" fill="#7E7F7F"/>
<path transform="translate(860,588)" d="m0 0h1v5h-3l-7 8-13 8-8 1v2l-12 1-20-3-13-3v-1l12-1 2-2 7-1 39-1 10-8z" fill="#1E1E1E"/>
<path transform="translate(1578,817)" d="m0 0 22 1 97 1v6l-50-1-18-1-24-1h-9l-17-3z" fill="#C5C5C5"/>
<path transform="translate(292,851)" d="m0 0 4 1 18 1-3 1-2 14 28 2 1 3h-14l-29-2-5-3v-15z" fill="#080808"/>
<path transform="translate(853,617)" d="m0 0h2l-1 3-5 3-21 2-32 2-11 3-8 4-6 5-5 9-3 9-3 19-1 11v65l1 28-2 2-2-31-1-24v-19l2-31 4-22 4-11 7-9 9-6 9-4 18-2 29-1 12-1v-2z" fill="#353636"/>
<path transform="translate(1426,565)" d="m0 0 6 1 20 8 31 13 20 8 15 7 21 9v-16l2-1v19l6 2 12 6 4 1 2 3-6-1-15-7-16-7-6-3-7-2-8-4-14-5v-2l-9-2-12-6-19-7-7-2v-2l-6-1-5-2v-2l-9-3z" fill="#3C3C3C"/>
<path transform="translate(1631,807)" d="m0 0h14l1 12h-18l-25-1-1-5-2-1 2-2z" fill="#7E807F"/>
<path transform="translate(1680,740)" d="m0 0h5l2 4 1 9h2l-1 4h-36v-3l3 1 2-2 2-6 3-3 8-3z" fill="#303030"/>
<path transform="translate(1407,731)" d="m0 0h11l14 2 15 5 2 2 1 3-3 5-4 1-9-4-15-3h-13l-14 3-6 2-2-6h-2l-1-4 7-3h3l2 6 5 1 3-1 35-1-13-4h-19l-8 1v-3z" fill="#7E7F7F"/>
<path transform="translate(389,845)" d="m0 0 4 1 6 8 5 7v2l4 2 3 3h6l-1 2-6 2h-14l-12-3 1-4 1-3 1-14-4-1z" fill="#1C1C1C"/>
<path transform="translate(1221,519)" d="m0 0 4 1-11 30-5 11-14 39-8 19-5 1 2-6 11-27 6-16v-3h2l1-6 10-28 6-14z" fill="#1F1F1F"/>
<path transform="translate(513,741)" d="m0 0 2 1-10 10-2 3h-2l-2 5-2 4 5-4-1 5-8 14-4 12-1 6-1 18h-1l-1-14-2 6-3 1v-13l4-15 6-14 9-13 8-7z" fill="#A0A2A2"/>
<path transform="translate(994,505)" d="m0 0h2l-3 9-2 3h-4l-9 4-8 5-10 9-4-4v-5l8-7 9-9 7-3z" fill="#3E3F3F"/>
<path transform="translate(1186,530)" d="m0 0h15l13 5-2 8-5 1-30-1 1-5 6-7z" fill="#7D7E7E"/>
<path transform="translate(724,612)" d="m0 0 9 1 8 2h15l32-2 4-1 15 2 13 1 7 2 22 1v3l-10-1-39-1-11-1-22 1-19 1-24-7z" fill="#9A9C9B"/>
<path transform="translate(328,722)" d="m0 0h3l5 6 2 2-6 9-2 1h-32l4-3 22-13z" fill="#CDCDCD"/>
<path transform="translate(1230,561)" d="m0 0 2 1v3l42 3 29 1 22 2h11l1-2 7 1 11 5v1h-14l-53-4-51-3-10-1 1-6z" fill="#F1F1F0"/>
<path transform="translate(270,802)" d="m0 0 4 2 3 3h8l6 2 3 6 1 4 4 11h-5v2h-8l-9-16z" fill="#262626"/>
<path transform="translate(928,489)" d="m0 0 2 1-17 13-19 13-18 13-17 12-20 14-18 13-17 12-20 14-9 6h-2v-2h3l1-3h3v-2h3l1-3h3l1-3 4-3h3l1-3 7-3 9-7 14-10 18-13 18-12 5-5 13-9h3v-2l3-1 1-2h3v-2l7-4 3-1v-2l3-1 1-2h3v-2h3v-2h3v-2h3v-2l4-1v-2l7-4z" fill="#979998"/>
<path transform="translate(983,463)" d="m0 0h2l1 7 14-1h108l2-5h2v6l-3 2h-124l-3-3z" fill="#8D8F8F"/>
<path transform="translate(501,874)" d="m0 0 4 2 10 7 14 8 24 8h20l19-2v-2l-2-1 5 1 12-4 6-3 4 1-6 4-21 8-9 2h-27l-15-4-12-5-11-6-9-7z" fill="#303030"/>
<path transform="translate(1357,768)" d="m0 0 1 2-5 9-4 10-2 9-1 22-4-3v-2h-2v18l-2-3-2-9v-21l3-16h3l-1 11 3-3 4-10 6-12z" fill="#C3C3C3"/>
<path transform="translate(1056,863)" d="m0 0h68l-1 2-56 1h-116v-2z" fill="#535454"/>
<path transform="translate(409,742)" d="m0 0h7l-3 15-4 18-4 19-1 1h-5l3-21 3-19 2-10z" fill="#1C1C1C"/>
<path transform="translate(395,840)" d="m0 0 6 3 2-1 6 8v2h2v2h2v2l4 2 2 2v7l-4 2-5-1-6-5-8-12-4-5-2-2z" fill="#313131"/>
<path transform="translate(1294,542)" d="m0 0 9 1 21 7v6l-8 2-7-1-26-8 1-2 9-2z" fill="#9C9F9E"/>
<path transform="translate(377,642)" d="m0 0 1 3-1 3h-2l-1 5-8 15-4 10-6 13-6 14-8 16-5 8-5-4 1-7 5-10 1 3v5l9-16 4-10 8-16 8-17 5-8 2-5z" fill="#3C3D3D"/>
<path transform="translate(1730,727)" d="m0 0h12l1 3v25h-12z" fill="#ccc"/>
<path transform="translate(1448,767)" d="m0 0 4 2 10 13 3 8v2l-9-1h-10l-3-2 1-10z" fill="#353535"/>
<path transform="translate(642,767)" d="m0 0 3 1 7 14 4 5 2 13v13h-1l-1-5-4 1-3-2-4-20-2-7v-4z" fill="#7E7F7F"/>
<path transform="translate(1140,648)" d="m0 0h10l8 2 5 5-2 3-17 1h-12l-16-1v-1l9-1 7-6z" fill="#424343"/>
<path transform="translate(267,763)" d="m0 0h27l-1 16h-3v-7l-14 1-2 2-2 7h-5v-8l1-3-1-1z" fill="#9A9D9C"/>
<path transform="translate(569,730)" d="m0 0h12l9 2v1h-6l8 8h-47v-3l8-3 14-2z" fill="#3B3C3C"/>
<path transform="translate(254,794)" d="m0 0h26l70 1 2-1v4l-84 1-13-3z" fill="#3F4040"/>
<path transform="translate(946,513)" d="m0 0h6l-2 4-11 12-18 18-6 7h-2l-1-3-2-2z" fill="#F7F7F6"/>
<path transform="translate(1588,636)" d="m0 0 5 1 27 12 48 24 12 4v3 2l9 3 10 6-3 1-38-20-29-14-19-10-22-11z" fill="#7E7F7F"/>
<path transform="translate(944,514)" d="m0 0m-1 1m-1 1m-1 1m-2 1 2 1-30 30 3 5-6 7-11 12-4 1-7-1 6-7 14-15h2l2-4z" fill="#CFCFCF"/>
<path transform="translate(493,780)" d="m0 0h1l-1 9-2 12v17l4 16 5 12 9 13 12 12 9 6-2 1-13-9-12-12-7-11-6-13-3-14v-22l3-12z" fill="#151516"/>
<path transform="translate(543,872)" d="m0 0 7 1 4 1h32l-4 3-8 4v2l3 2-1 1h-21l-3-6-9-7z" fill="#F3F4F3"/>
<path transform="translate(1691,675)" d="m0 0 5 5 16 10 14 12 3 4-4-2-6-5-11-4-5-1-14-8-9-4v-2l-2-1 7-2h6z" fill="#C7C7C7"/>
<path transform="translate(1600,638)" d="m0 0 12 4 29 14 27 14 10 4h12l1 3-11 1-17-6-33-17-23-11-10-4z" fill="#1B1B1B"/>
<path transform="translate(956,527)" d="m0 0 1 4 3 5-21 21-1 2-6-3 1-6z" fill="#7F8080"/>
<path transform="translate(1477,762)" d="m0 0 4 4 7 14 4 12 1 6v21l-3 14-6 14-9 12-9 9-2-1 7-7 10-16 6-15 2-9v-23l-4-16-5-12-3-5z" fill="#141314"/>
<path transform="translate(1441,829)" d="m0 0h22l-2 5-6 10-9 9h-2l-2-7v-5l8-1 7-3-9 1-8 1z" fill="#393939"/>
<path transform="translate(296,740)" d="m0 0h90v1l-30 1-15 1-54 1v2l4 1-5 1v2h-7v-2l-4-1 1-3z" fill="#2A2A2A"/>
<path transform="translate(1253,516)" d="m0 0h10l25 6 41 12v1l-13-1 1 2-9-2-11-4-25-7-19-6z" fill="#bbb"/>
<path transform="translate(490,801)" d="m0 0h1l1 5 3-5h2l1 4 2-1 3 21 1 6-3 3-4-2-3-5-2 1-2-10z" fill="#7D7E7E"/>
<path transform="translate(729,864)" d="m0 0h72v3l-17 1h-54l-5-2z" fill="#303030"/>
<path transform="translate(617,776)" d="m0 0h2l6 13 1 3v8l-8 3-12 2h-9l-7-1v-1l26-2 6-1-4-13-2-6-8 4-18 14-6 2v-3l17-12 7-4 5-2v-2z" fill="#444545"/>
<path transform="translate(1221,537)" d="m0 0h2l-2 12-8 20-5 11-7 21-4 10-4 9 2 2h-51v-1h47l1-7 6-16 15-39z" fill="#343434"/>
<path transform="translate(1705,642)" d="m0 0 2 1-7 7-7 12-3 12-4 1h-8l-8-4 2-1 6 2 7-13 9-10 3-3z" fill="#CACACA"/>
<path transform="translate(1470,798)" d="m0 0h2l1 13-2 10-1 2-6 1-11-2-20-8 3-1 16 6 14 3 1-17v-2l-15 2-13 2h-8l3-2 27-6z" fill="#393A3A"/>
<path transform="translate(636,792)" d="m0 0 5 1 4 3 1 8v10l-1 7-2-2-3 1-4-2-1-2-1-21z" fill="#7E7F7F"/>
<path transform="translate(1343,771)" d="m0 0 1 2-4 11-3 16v21l4 15 7 14 9 12 5 6-4-2-9-9-9-14-5-14-2-11v-21l3-12z" fill="#1A191A"/>
<path transform="translate(1770,755)" d="m0 0h31l2 2-2 4-6 1-22 1-3 1-9-2v-2z" fill="#343434"/>
<path transform="translate(502,694)" d="m0 0 2 1-9 5-5 5-16 12-11 11-5 6-8 4h-2l2-4 12-13 13-11 15-10z" fill="#7F8080"/>
<path transform="translate(564,727)" d="m0 0h9v3l-24 3-12 4-13 7-11 9-8 9-8 14-2 6-3-1 2-6 9-15 11-12 13-10 15-7 12-3z" fill="#181718"/>
<path transform="translate(705,669)" d="m0 0h20l1 1-1 10-1 1h-19l-1-1v-10z" fill="#A4A6A5"/>
<path transform="translate(312,760)" d="m0 0h48l-2 4h-64l-12-1v-1z" fill="#3A3B3B"/>
<path transform="translate(1409,548)" d="m0 0 11 3 28 11 32 13v3l1 2-9-3-11-5-13-5-8-4-10-4-9-3v-2l-9-3z" fill="#424343"/>
<path transform="translate(1722,839)" d="m0 0 17 1v7l-1 1h-33l4-5 4-3z" fill="#282828"/>
<path transform="translate(585,758)" d="m0 0h1l4 14 1 5v-4l-3-8 1-4 4 6 4-1 1-2 4 1 7 6-3 3-14 6-5-1-2-2z" fill="#2C2C2C"/>
<path transform="translate(564,730)" d="m0 0 8 1-4 2-1 1-14 2-8 3v1h20v1l-13 2-15 5-1-3h-2l-1-7 12-5z" fill="#7E7F7F"/>
<path transform="translate(1571,597)" d="m0 0h9l4 2 11-1 5 3-1 3-4 2h-19l-9-2-2-5z" fill="#111112"/>
<path transform="translate(1762,774)" d="m0 0h15l2 1v2l-10 1-32 1h-31l-1-3z" fill="#3C3C3C"/>
<path transform="translate(1398,731)" d="m0 0h9v1l-11 1v3l8-2h19l13 4 1 2-36 1-5 1-4-2 3-3v-5z" fill="#3D3E3E"/>
<path transform="translate(319,854)" d="m0 0h13l1 4-1 6 3 3v2h-16l-3-2v-8z" fill="#323232"/>
<path transform="translate(1332,704)" d="m0 0h2v2l-3 2h-3v2l-4 1v2l-6 4-8 8-7 8-12 16-3 5-3 1 1-5 7-11 9-11 16-16 2-5 9-2z" fill="#EDEDEC"/>
<path transform="translate(646,800)" d="m0 0h2l1 4-1 17-4 15-8 16-11 13-14 11-4 1 4-4 9-7 10-11 7-12 6-18 2-11z" fill="#161616"/>
<path transform="translate(758,677)" d="m0 0h1v75l1 28-2 2-2-31-1-24v-19l1-21 1-9z" fill="#484848"/>
<path transform="translate(584,733)" d="m0 0h7l15 7 1 3-4 6-6-1-15-6-10-1v-1h19l-7-5z" fill="#7D7E7E"/>
<path transform="translate(1297,495)" d="m0 0 4 2 3 4 2 7 6 3 13 4 13 5v2h6v2h6l2 2-2 3-30-11-16-8-5-5-2-4z" fill="#7C7D7D"/>
<path transform="translate(1540,594)" d="m0 0h1v19l6 2 12 6 4 1 2 3-6-1-15-7-16-7-6-3-7-2-8-4-14-5v-1h10l15 7 21 9v-16z" fill="#323232"/>
<path transform="translate(1461,690)" d="m0 0 11 2 20 8 18 10 11 7 3 3v2h2l4 6v5l-7-6-5-6-13-10-14-8-15-7-15-4z" fill="#FCFCFB"/>
<path transform="translate(805,603)" d="m0 0h38l-3 3-8 3h-25l-6-1 2-4z" fill="#050405"/>
<path transform="translate(1207,787)" d="m0 0h2l-2 5-10 11-4 7-2 7-2 1-18 1 4-4 13-9 13-12z" fill="#090809"/>
<path transform="translate(1316,533)" d="m0 0 8 1 9 3 20 7 5 5 5 3-4 1-28-11-13-5-3-3z" fill="#EDEDED"/>
<path transform="translate(606,741)" d="m0 0 4 2v6l6-3 10 9-5 6-4 1-9-8-8-5 5-5z" fill="#999C9B"/>
<path transform="translate(530,726)" d="m0 0 3 1-14 8-11 9-9 10-9 14-6 15-4 17-2 1 1-11 5-16 7-14 9-12 9-9 13-9z" fill="#BBBCBC"/>
<path transform="translate(293,764)" d="m0 0h1v18h-22l1-7 3-3h14v7h3z" fill="#313131"/>
<path transform="translate(1755,817)" d="m0 0h4l-3 10-3 3-6 1-3 3h-23l2-3h2v-2h22l2-5z" fill="#2F2F2F"/>
<path transform="translate(1650,758)" d="m0 0h3l1 5-1 49h-3l-1-38-1-1v-10z" fill="#1C1C1C"/>
<path transform="translate(913,576)" d="m0 0 6 1 5 6h1l1 9 2 5h-2v3h-10v-16z" fill="#1F1F1F"/>
<path transform="translate(764,818)" d="m0 0h71v1l-8 1v1h-63z" fill="#7F8080"/>
<path transform="translate(1340,815)" d="m0 0h2l2 2 3 1 5 17-3 5-4-2-4-5-2-5v-10z" fill="#9DA09F"/>
<path transform="translate(1170,656)" d="m0 0h9l4 5-1 4-3 2h-7l-14-6 4-3z" fill="#535454"/>
<path transform="translate(1496,849)" d="m0 0h2l-2 6-9 13-13 13-13 9-8 4-1-1h-5l3-2 15-8 9-7 14-14z" fill="#1C1C1C"/>
<path transform="translate(1699,763)" d="m0 0h43l-3 2-16 2-15 1-4 2 1 3-6 1z" fill="#FAFAF9"/>
<path transform="translate(724,612)" d="m0 0 9 1 8 2h15l12-1h15l2 2-5 2-25 2h-7l-24-7z" fill="#717272"/>
<path transform="translate(1255,512)" d="m0 0 10 1 33 8 12 3 1 2-9 1-30-8-17-6z" fill="#373737"/>
<path transform="translate(503,782)" d="m0 0h1l-1 8-4 20h-1l-1-9h-2l-2 5-2 1v-13l2-6h5z" fill="#C6C7C7"/>
<path transform="translate(724,620)" d="m0 0h1l-1 9-6 5-8 3-4 1h-32l-11-4-5-6v-6l2 3 2 6 6 2 1 1 9 1h21l16-3 6-3z" fill="#626363"/>
<path transform="translate(1221,560)" d="m0 0h2l-3 14-5 11-7 20-6 13h-2l1-7 14-35z" fill="#2C2C2C"/>
<path transform="translate(567,844)" d="m0 0 5 2 6 5 7 9-4 1-7-7-6-4-1 2-4 2-2 6h4l2-3 2-1 1-4 2 4-4 6h-12l2-5z" fill="#2F2F2F"/>
<path transform="translate(1469,746)" d="m0 0 4 2 7 8 9 14 5 12 4 10 1 1 1 11h-4l-2-1-1-15-6-16-1-4-3-1-5-9-4-4-3-5z" fill="#808181"/>
<path transform="translate(1402,755)" d="m0 0h11l-2 6-8-3 7 4-1 6h-3l-14-6-4-2 3-2z" fill="#212121"/>
<path transform="translate(1738,727)" d="m0 0h4l1 3v25h-6v-27z" fill="#848585"/>
<path transform="translate(1201,573)" d="m0 0 1 2-6 22-8 20-2 3h-4l2-6 11-27 5-13z" fill="#2A2A2A"/>
<path transform="translate(1110,464)" d="m0 0h2v6l-3 2h-36v-1l-66-1v-1h101z" fill="#999B9B"/>
<path transform="translate(1392,572)" d="m0 0h8l13 8 10 9 2 4-1 5-4-4-7-8-16-10z" fill="#1C1C1C"/>
<path transform="translate(250,759)" d="m0 0h111v1l-49 1-18 1v-2h-37v3l-6 1v-2l-2-1z" fill="#1C1C1C"/>
<path transform="translate(1692,762)" d="m0 0h3l1 3 3-3 1 12v24h14v1h-15v15h-1l-1-39-4 3z" fill="#4B4B4B"/>
<path transform="translate(1405,730)" d="m0 0h28l15 6 10 6 11 9 8 9-1 2-8-9-14-10-12-6-14-4-23-2z" fill="#201F20"/>
<path transform="translate(994,505)" d="m0 0h2l-3 9-2 3h-4l-8 3h-3l1-5 6-4-3-4z" fill="#323232"/>
<path transform="translate(530,890)" d="m0 0 5 1 13 4 13 2h10l16-2h5v2l-7 2-12 1h-20l-24-8z" fill="#0D0C0D"/>
<path transform="translate(1239,516)" d="m0 0 20 2 10 3-1 3 4 2-10-1-21-5-3 9-1-3v-7z" fill="#262626"/>
<path transform="translate(613,888)" d="m0 0 4 1-6 4-21 8-9 2h-23v-2l27-1v-2l7-1v-2l-2-1 5 1 12-4z" fill="#373838"/>
<path transform="translate(1597,811)" d="m0 0 4 1 2 5 25 1v1h-28l-19-1-3-2 8-3z" fill="#9EA1A0"/>
<path transform="translate(338,708)" d="m0 0 1 3v5l4-7 4-1-1 5-8 15h-3l-3-3 1-7z" fill="#3A3B3B"/>
<path transform="translate(1175,580)" d="m0 0h2l-1 20-2 16-2-4-2-7v-12l2-9z" fill="#1C1C1C"/>
<path transform="translate(1730,818)" d="m0 0 2 1-8 8-4 1-2-2-11-1h-8v-5h13l16-1z" fill="#C9C9C9"/>
<path transform="translate(1389,553)" d="m0 0 9 2 7 3h7l16 6-2 1v2l9 3v2l-5-2-16-5-9-4-10-3-6-3z" fill="#474848"/>
<path transform="translate(566,793)" d="m0 0 9 2 6 7v5l-4-5-4-4-7-1-7 4-2 8 1 5 4 5 8 2v1h-7l-7-6-2-4v-10l5-6z" fill="#2E2E2E"/>
<path transform="translate(1421,749)" d="m0 0 8 1 11 4 5 4-1 5-5-2-18-7z" fill="#3B3C3C"/>
<path transform="translate(833,556)" d="m0 0 3 1-18 13-14 10-20 14-9 6h-2v-2h3l1-3h3v-2h3l1-3h3l1-3 4-3h3l1-3 7-3 9-7 14-10z" fill="#8F9191"/>
<path transform="translate(567,800)" d="m0 0h4v2l3 1-1 9-5 4-5-4-1-2v-6l2-3z" fill="#3A3A3A"/>
<path transform="translate(1570,606)" d="m0 0h25l-5 5-5 3h-11v-4z" fill="#F1F1F0"/>
<path transform="translate(528,817)" d="m0 0 4 2 3 3-2 4-6 10-2 4h-2l-2-3 1-7z" fill="#3C3D3D"/>
<path transform="translate(493,780)" d="m0 0h1l-1 9-2 12v24l-3-1-1-5v-22l3-12z" fill="#0F0F0F"/>
<path transform="translate(514,781)" d="m0 0 5 1 10 6-2 1-9-4-3 9-2 11-4 1-1-3 2-12z" fill="#414242"/>
<path transform="translate(954,493)" d="m0 0v3l-9 9-8 7-14 14-7 8-16 15-3 2 2-4 47-47 4-5z" fill="#292929"/>
<path transform="translate(897,634)" d="m0 0h9l10 4 2 1-3 6h-4v-2l-10-1v-2h-2v-2l-2-1z" fill="#7E7F7F"/>
<path transform="translate(1337,569)" d="m0 0 7 1 11 5v1h-14l-23-2-4-1v-2h22z" fill="#F4F4F4"/>
<path transform="translate(557,748)" d="m0 0h20l1 1v6l-4-1h-14l-7 1-1-5z" fill="#3C3D3D"/>
<path transform="translate(1702,830)" d="m0 0h8l3 1 1 4-11 8h-4v-12z" fill="#7E7F7F"/>
<path transform="translate(948,471)" d="m0 0 6 1 6 7 3 8-1 6h-1v-5l-4-2-6-8v-2l-4-1-3-1-1 5-2 2 1-7 2-2z" fill="#212121"/>
<path transform="translate(1253,516)" d="m0 0h10l25 6 10 3-4 1h-12l-29-9z" fill="#7E7F7F"/>
<path transform="translate(1438,854)" d="m0 0 2 2v5l-8 4-11 3-5-1-1-4 15-4 7-2z" fill="#3A3A3A"/>
<path transform="translate(340,699)" d="m0 0 3 1 2 2 3-2-2 6-7 11h-1v-8l-5 11-2 4v-12l1-3 5-1z" fill="#7F8080"/>
<path transform="translate(555,678)" d="m0 0h28l10 2v1l-20-1-20 1-17 3-13 4-4-1 10-4 18-4z" fill="#848585"/>
<path transform="translate(889,622)" d="m0 0 4 3-2 6-3 2-5 1h-22l-5-2-2-2v-7l2 3 1 3 2 1h26l3-1z" fill="#0F0E0F"/>
<path transform="translate(1181,587)" d="m0 0 5 2 1 8-4 13-5 2 2-20z" fill="#1C1C1C"/>
<path transform="translate(1702,824)" d="m0 0h11l6 2 2 3-6 5h-2v-3h-14v-6z" fill="#9DA09F"/>
<path transform="translate(1349,753)" d="m0 0v3l-7 10-6 12-4 12-2 13-2 2-1-2 1-16 12-23 6-9z" fill="#7E7F7F"/>
<path transform="translate(1402,607)" d="m0 0 6 1-2 2-13 2-12 1h-41v-1l35-2z" fill="#353636"/>
<path transform="translate(942,541)" d="m0 0 3 4 1 5-7 7-1 2-6-3 1-6z" fill="#9EA1A0"/>
<path transform="translate(314,853)" d="m0 0h16v1l-11 1-2 6v6l2 2h-8l-2-1v-9l2-5z" fill="#1C1C1C"/>
<path transform="translate(1410,794)" d="m0 0h7l6 4 4 5 1 6-3 7-4 4-2-1 4-2 1-4v-7l-2-6-8-3-6 1-3 1-2 5-1 2v9l-3-3v-6l6-10z" fill="#252525"/>
<path transform="translate(526,846)" d="m0 0 4 2 11 8 7 4-2 4-6-2-13-9-2-2z" fill="#3E3F3F"/>
<path transform="translate(409,742)" d="m0 0h7l-3 15-2 2h-5v-11z" fill="#3B3C3C"/>
<path transform="translate(1305,507)" d="m0 0 7 1 16 6 16 5 8 4 1 2-9-1v-2h-6v-2l-10-3-11-4-10-3z" fill="#9B9E9D"/>
<path transform="translate(1145,788)" d="m0 0 1 3-9 13-9 6-11 4-5 1h-33v-1l34-2 14-4 8-6 6-8z" fill="#272727"/>
<path transform="translate(1360,827)" d="m0 0h2l5 10 7 9 1 2-5 2-9-12-4-7v-2h3z" fill="#3F3F3F"/>
<path transform="translate(1399,840)" d="m0 0h2l4 7 1 7h-2l-2 5h3l1-3 3 5v2l-9-2-2-5 3-3h3l-2-8-6 2-1 3-3-2 1-4z" fill="#313131"/>
<path transform="translate(1098,815)" d="m0 0h15l-3 3h-63v-1z" fill="#9FA2A1"/>
<path transform="translate(1414,800)" d="m0 0 5 2 1 5-3 6-3 2h-4l2-5v-2l-4 1v-5l3-3z" fill="#3E3E3E"/>
<path transform="translate(249,784)" d="m0 0h105l-1 4-3-2-100-1-1 3z" fill="#CACACA"/>
<path transform="translate(1451,839)" d="m0 0h6l-2 5-9 9h-2l-2-7v-5l8-1z" fill="#3F4040"/>
<path transform="translate(626,754)" d="m0 0 5 5 9 14 5 11 3 12v4h-2l-1 4-3-17-6-16-7-11-3-4z" fill="#1C1C1C"/>
<path transform="translate(280,807)" d="m0 0 10 1 3 6v2l-5 2h-5l-5-8v-2z" fill="#9B9D9C"/>
<path transform="translate(1722,839)" d="m0 0 17 1v4h-29l3-4z" fill="#7E7F7F"/>
<path transform="translate(1140,648)" d="m0 0h10l8 2 5 5-2 1-5-3-9-1-9 1-9 3-3-1 6-5z" fill="#323232"/>
<path transform="translate(1451,565)" d="m0 0 7 1 22 9v3l1 2-9-3-11-5-9-4z" fill="#393939"/>
<path transform="translate(1654,664)" d="m0 0 6 2 18 8h12l1 3-11 1-17-6-9-5z" fill="#242424"/>
<path transform="translate(1230,561)" d="m0 0 2 1v3l32 2 1 3-28-1-10-1 1-6z" fill="#ECECEB"/>
<path transform="translate(867,617)" d="m0 0h12l8 3 2 4h-10l-10-2-4-4z" fill="#828484"/>
<path transform="translate(609,841)" d="m0 0 4 3-1 4-7 7-8 6-4-1v-3l10-7 6-7z" fill="#434444"/>
<path transform="translate(724,671)" d="m0 0h1v9l-1 1h-19v-4l7-1 3 1v-4h4l1 3h2z" fill="#333"/>
<path transform="translate(860,588)" d="m0 0h1v5h-3l-7 8-13 8-8 1 2-2 10-4-36-1v-1l39-1 10-8z" fill="#2A2B2B"/>
<path transform="translate(877,524)" d="m0 0 2 1-4 5-16 11-20 14-5 1 4-4 24-16 5-5z" fill="#909291"/>
<path transform="translate(646,800)" d="m0 0h2l1 4-1 17-4 15h-4l3-11 2-11z" fill="#1C1C1D"/>
<path transform="translate(1130,666)" d="m0 0h18l-1 5h-6v2h-6l-4-3-15-1v-1h14z" fill="#FCFCFB"/>
<path transform="translate(1477,762)" d="m0 0 4 4 7 14 4 12 1 12h-2v12h-1l-1-19-4-16-5-12-3-5z" fill="#2B2B2B"/>
<path transform="translate(1309,726)" d="m0 0 1 4-6 8h-2v2l-5 5-7 10-5 4 2-5 9-13 8-10z" fill="#828383"/>
<path transform="translate(1520,585)" d="m0 0 6 1 4 1-2 4-6 3-11-1 1-4h5l1-3z" fill="#232323"/>
<path transform="translate(1221,537)" d="m0 0h2l-2 12-12 30-2-4z" fill="#2B2B2B"/>
<path transform="translate(1e3 524)" d="m0 0h1v11l-10 23-1-4 2-10 3-9z" fill="#808282"/>
<path transform="translate(1699,692)" d="m0 0 6 2 14 9 14 11 8 8-3 1-7-7-14-11-15-10z" fill="#474848"/>
<path transform="translate(513,741)" d="m0 0 2 1-10 10-2 3h-2l-2 5-3 4-3 8-3 1 3-12 8-10 11-9z" fill="#767878"/>
<path transform="translate(1482,790)" d="m0 0 5 5 1 2v9l-1 2h-6v-17z" fill="#7E7F7F"/>
<path transform="translate(1374,763)" d="m0 0h3l6 8-1 2-3-3-5 1-5 5-5 7-3-1 7-12z" fill="#4F5050"/>
<path transform="translate(569,730)" d="m0 0h12l9 2v1h-6l2 4-8-1-21-1v-1l10-1z" fill="#404141"/>
<path transform="translate(288,819)" d="m0 0 7 1 3 6v3h-10l-4-8z" fill="#CECECE"/>
<path transform="translate(1385,761)" d="m0 0 5 1 16 8v4l-3 1-8-4-10-9z" fill="#292929"/>
<path transform="translate(299,817)" d="m0 0 5 5 6 8v2h-16v-2l5-1v-6l-1-4z" fill="#1D1D1D"/>
<path transform="translate(932,551)" d="m0 0 1 2-1 3 6 2h2v2h7v1l-8 1h-17l6-7z" fill="#D6D6D6"/>
<path transform="translate(621,812)" d="m0 0 1 2-3 12-4 9-6-5 4-3h4v-4l-4-2v-3l6-4z" fill="#2C2C2D"/>
<path transform="translate(451,792)" d="m0 0h1l1 28 3 20-1 4-4-16-1-8v-23z" fill="#1C1C1C"/>
<path transform="translate(809,598)" d="m0 0 2 1-5 4-7 1-2 2h-12l-16-3-9 1h-3l4-3h10l12 2 14-1 10-2z" fill="#777878"/>
<path transform="translate(490,801)" d="m0 0h1l1 5 3-5h2l1 9-2-3-2 4 1 16-3 1-2-10z" fill="#969998"/>
<path transform="translate(296,740)" d="m0 0h6l-4 3-11 1v2l4 1-5 1v2h-7v-2l-4-1 1-3z" fill="#393A3A"/>
<path transform="translate(585,756)" d="m0 0 14 7-1 10h-1v-7h-3l-1 3-4-7 1 6 3 9h-2l-5-14z" fill="#181718"/>
<path transform="translate(368,743)" d="m0 0h4l-1 9-2 6-4 1-3-4 1-7 2 1 2-5z" fill="#363737"/>
<path transform="translate(918,586)" d="m0 0h3l4 8 1 6h-10l1-12z" fill="#323232"/>
<path transform="translate(1158,666)" d="m0 0h4l-1 4-6 4-9 1-6-1-1-3 5-1 10-1z" fill="#D0D0CF"/>
<path transform="translate(488,774)" d="m0 0h2v6l-3 6-2 15-2 3h-2v-8l4-15z" fill="#7F8180"/>
<path transform="translate(1725,830)" d="m0 0h21l-2 4h-23z" fill="#7E7F7F"/>
<path transform="translate(377,642)" d="m0 0 1 3-1 3h-2l-1 5-8 15-4 10-2-4 8-17 5-8 2-5z" fill="#535454"/>
<path transform="translate(1660,738)" d="m0 0h7l1 3-5 2v2h-2l-2 9-5 2-1-3z" fill="#747675"/>
<path transform="translate(857,613)" d="m0 0 9 1 17 1 14 1v1h-11l1 3-8-2h-14l-8-3z" fill="#3E3E3E"/>
<path transform="translate(1340,819)" d="m0 0 4 1 3 4 1 8-3 1-1 2-4-7z" fill="#777878"/>
<path transform="translate(1600,638)" d="m0 0 12 4 15 7-1 3-6-2-23-10z" fill="#202020"/>
<path transform="translate(822,619)" d="m0 0h17l8 1-1 2-9 1h-17z" fill="#BEBEBE"/>
<path transform="translate(1466,581)" d="m0 0 5 1 29 12 1 2-10-2-8-3-9-4-1-2-7-3z" fill="#2D2D2D"/>
<path transform="translate(501,874)" d="m0 0 4 2 10 7 14 8-2 3-11-6-9-7z" fill="#2A2A2A"/>
<path transform="translate(1695,775)" d="m0 0h1l-1 37-2 1v-35z" fill="#1C1C1C"/>
<path transform="translate(1389,731)" d="m0 0 3 1-1 2-16 7-12 8-4 4-2-1 7-7 14-9z" fill="#1E1E1E"/>
<path transform="translate(530,726)" d="m0 0 3 1-14 8-11 9-9 8v-3l10-10 13-9z" fill="#BCBCBC"/>
<path transform="translate(333,694)" d="m0 0h1v5l4-2h3l-3 9-1 2-5 1-1 3 1-13z" fill="#ccc"/>
<path transform="translate(492,764)" d="m0 0 1 3-2 3v7l-1-3h-2l-3 10-3 12-1 8h2l1-2-1 5-3 1v-13l4-15 6-14z" fill="#9EA1A0"/>
<path transform="translate(1331,853)" d="m0 0h2l9 13 15 15-3 1-15-15-8-12z" fill="#1C1C1C"/>
<path transform="translate(1297,495)" d="m0 0 4 2 3 4 2 7 8 4v1l-7-1-6-4-4-7z" fill="#313232"/>
<path transform="translate(1487,806)" d="m0 0h1v12l-7 1v-11l4-1 2 1z" fill="#848585"/>
<path transform="translate(1764,597)" d="m0 0 1 3-4 8-9 9-11 6-2-1 5-4 10-7 6-7z" fill="#1C1C1C"/>
<path transform="translate(1398,731)" d="m0 0h9v1l-11 1v3l8-2h19v2l-16 1-12 2v-7z" fill="#343535"/>
<path transform="translate(573,728)" d="m0 0h8l15 4 10 5v2l-6-1-10-5-17-3z" fill="#171718"/>
<path transform="translate(1221,560)" d="m0 0h2l-3 14-5 11-4 8h-2l3-10 6-15z" fill="#373737"/>
<path transform="translate(1191,526)" d="m0 0 13 1 11 2 1 2-2 4-9-3-4-1-1-2-9-2z" fill="#AEAFAF"/>
<path transform="translate(1255,512)" d="m0 0 10 1 13 3v2l9 2v1h-7l-12-3-8-3-5-2z" fill="#2B2C2C"/>
<path transform="translate(405,811)" d="m0 0h1v11l-2 12-3 3-1-1 1-10 3-14z" fill="#0C0C0D"/>
<path transform="translate(658,622)" d="m0 0 2 3 2 6 6 2 1 1 27 2v1l-22 1-11-4-5-6z" fill="#777878"/>
<path transform="translate(1377,547)" d="m0 0 7 1 15 5 9 4v2l-5-1-15-5-11-4z" fill="#353535"/>
<path transform="translate(1650,758)" d="m0 0h3l1 5v8l-1 2h-5v-10z" fill="#363737"/>
<path transform="translate(647,790)" d="m0 0 2 4 2 9h4l1-7 2 4v13h-1l-1-5-4 1-3-2-2-11z" fill="#959797"/>
<path transform="translate(511,751)" d="m0 0 2 2-8 9-8 14-2 6-3-1 2-6 9-15z" fill="#2C2C2C"/>
<path transform="translate(1163,749)" d="m0 0 1 3-13 29-4 8-2-2 8-16 7-17z" fill="#262727"/>
<path transform="translate(1165,654)" d="m0 0 3 1 2 2-10 3v2h-11l-5-4 17-1 1-2z" fill="#1C1C1C"/>
<path transform="translate(801,616)" d="m0 0 26 1 22 1v3l-46-3z" fill="#7D7E7E"/>
<path transform="translate(1452,892)" d="m0 0 1 2-19 7-3 1h-11l4-2 13-2v-2l9-3z" fill="#3B3B3B"/>
<path transform="translate(1499,794)" d="m0 0h2l1 9v10h-1v-5l-6 1-1 5h-1v-11h2l2-2 3 3-1-2z" fill="#949696"/>
<path transform="translate(535,734)" d="m0 0 2 1v2l-13 7-10 8h-2l2-4 13-10z" fill="#191819"/>
<path transform="translate(1388,759)" d="m0 0 9 1 9 3 1-2 3 1-1 6h-3l-14-6-4-2z" fill="#2E2E2E"/>
<path transform="translate(1175,657)" d="m0 0h5l3 4-1 4-3 2-4-1-1-1v-6z" fill="#979898"/>
<path transform="translate(585,758)" d="m0 0h1l4 14v6l3 1-5 1-3-3z" fill="#2F2F2F"/>
<path transform="translate(1353,695)" d="m0 0 4 1-17 8-16 11h-2v-2h2v-2l4-1v-2l6-2v-2z" fill="#868887"/>
<path transform="translate(1189,660)" d="m0 0 1 3 3 1-1 8-2 1v-3l-6 2-2 1h-14v-1l13-1 5-4z" fill="#F5F5F4"/>
<path transform="translate(1206,560)" d="m0 0 2 1-2 9-7 18-1-3 3-12v-5h2l1-6z" fill="#1F1F1F"/>
<path transform="translate(1332,518)" d="m0 0 6 2v2h6v2h6l2 2-2 3-19-7z" fill="#737575"/>
<path transform="translate(1442,891)" d="m0 0 3 1 1 2-17 5h-5l1-3z" fill="#131213"/>
<path transform="translate(1493,595)" d="m0 0h10l15 7 1 4-9-3-10-5-7-2z" fill="#424343"/>
<path transform="translate(587,863)" d="m0 0 1 3-9 3-8 1h-9l-8-3v-3l4 2 6 1h9l11-2z" fill="#232323"/>
<path transform="translate(1687,844)" d="m0 0h10l-1 4h-19l-1-2 2-1z" fill="#1C1C1C"/>
<path transform="translate(1674,764)" d="m0 0h3l-1 46h-1z" fill="#252525"/>
<path transform="translate(1410,559)" d="m0 0 6 1 12 4-2 1v2l9 3v2l-5-2-11-4-1-2-8-3z" fill="#404040"/>
<path transform="translate(1420,824)" d="m0 0 5 4 13 23-1 3-8-13-9-15z" fill="#262626"/>
<path transform="translate(1685,763)" d="m0 0h3l-1 48h-1z" fill="#1C1C1C"/>
<path transform="translate(1763,763)" d="m0 0h7l3 3v5h-19v-1l11-1v-4z" fill="#F8F8F7"/>
<path transform="translate(1176,715)" d="m0 0 2 1-3 9-10 25-2-1 2-7 5-11z" fill="#313232"/>
<path transform="translate(1319,528)" d="m0 0 8 1 13 4 10 4-4 1-22-7-5-2z" fill="#353535"/>
<path transform="translate(997,507)" d="m0 0 2 1 1 4 3 3-2 5h-2v2h-2v-6l-3 2 1-7z" fill="#303030"/>
<path transform="translate(948,471)" d="m0 0 7 6 3 5v3h-2l-5-7v-2l-4-1-3-1-1 5-2 2 1-7 2-2z" fill="#353636"/>
<path transform="translate(289,836)" d="m0 0 4 1 3 5v2l4 2-2 5-3 1-3-8-3-6z" fill="#7F8080"/>
<path transform="translate(1343,771)" d="m0 0 1 2-4 11-3 16-3-3 1-9 7-16z" fill="#191819"/>
<path transform="translate(579,832)" d="m0 0 4 4 8 19 2 3h-3l-8-15-3-8z" fill="#1C1C1C"/>
<path transform="translate(556,799)" d="m0 0 4 1-3 7 1 7 4 5 8 2v1h-7l-7-6-2-4v-10z" fill="#1C1C1C"/>
<path transform="translate(376,744)" d="m0 0 4 1-4 13-2 5-2-3 2-12z" fill="#282929"/>
<path transform="translate(759,780)" d="m0 0 2 3 2 21v7l-2 3-2-20z" fill="#2F2F2F"/>
<path transform="translate(1737,778)" d="m0 0h35v1l-17 2h-16v-2z" fill="#090909"/>
<path transform="translate(617,751)" d="m0 0 4 1 3 4-3 5-4 1-2-4v-2h2l-1-3z" fill="#7F8080"/>
<path transform="translate(1275,521)" d="m0 0h9l14 4-4 1h-12l-8-3z" fill="#969897"/>
<path transform="translate(644,809)" d="m0 0h1v12l-2-2-3 1-4-2-1-4 2-3v2h7z" fill="#9FA2A1"/>
<path transform="translate(908,616)" d="m0 0 11 2v1h-33v-2z" fill="#141314"/>
<path transform="translate(1549,597)" d="m0 0 2 1 4 11 6 9 2 2-5-1-7-10-2-7z" fill="#2A2B2B"/>
<path transform="translate(1463,884)" d="m0 0h4l-1 3-12 7-7-1 3-2z" fill="#2A2A2A"/>
<path transform="translate(570,846)" d="m0 0 4 2 5 5 6 8-5-1-6-6z" fill="#393A3A"/>
<path transform="translate(620,800)" d="m0 0 2 2-16 3h-9l-7-1v-1l26-2z" fill="#232323"/>
<path transform="translate(664,715)" d="m0 0 4 2 16 16 3 4-1 3-10-11-5-6-7-6z" fill="#838484"/>
<path transform="translate(1417,602)" d="m0 0h4v3l-8 4-7 1-2-3z" fill="#1C1C1C"/>
<path transform="translate(1377,854)" d="m0 0 3 2v2l4 2 12 5 12 2v2l-10-1-12-4-9-7z" fill="#262626"/>
<path transform="translate(1451,842)" d="m0 0h2l1 3-8 8h-2l-1-7 4-2h4z" fill="#242424"/>
<path transform="translate(501,760)" d="m0 0 1 3-6 10-3 3-3 4 1-7 6-9z" fill="#BFC0C0"/>
<path transform="translate(401,735)" d="m0 0 3 1 43 1v1l-48 1z" fill="#FEFEFD"/>
<path transform="translate(547,679)" d="m0 0 3 1-5 2-19 5-7 1 1-2 17-5z" fill="#838584"/>
<path transform="translate(1230,561)" d="m0 0 2 1v3l11 1 1 2h-17l1-6z" fill="#F9F9F8"/>
<path transform="translate(1481,847)" d="m0 0 1 3-8 10-8 8-2-1 7-7 8-12z" fill="#212021"/>
<path transform="translate(1715,838)" d="m0 0h26l-1 5-1-3h-25z" fill="#303131"/>
<path transform="translate(557,830)" d="m0 0 1 4-4 16-5 10-2-1 4-9z" fill="#202020"/>
<path transform="translate(583,820)" d="m0 0 10 6 11 8v2l3 1-1 2-12-9-11-8z" fill="#212121"/>
<path transform="translate(900,509)" d="m0 0 2 1-16 12-7 5-2-1 3-4h3v-2l3-1 1-2h3v-2l7-4z" fill="#8E8F8F"/>
<path transform="translate(1491,804)" d="m0 0h2v15l-1 6-4 4 1-9z" fill="#151415"/>
<path transform="translate(1221,519)" d="m0 0 4 1-4 11h-5l3-9z" fill="#2A2A2A"/>
<path transform="translate(611,886)" d="m0 0 2 1v2l-8 4-12 3 1-3 13-5z" fill="#131313"/>
<path transform="translate(506,859)" d="m0 0 4 1 11 11 9 6-2 1-13-9-9-9z" fill="#1D1D1D"/>
<path transform="translate(270,802)" d="m0 0 4 2 3 3 3 1h-2l2 5 1 8-4-5z" fill="#464747"/>
<path transform="translate(1284,753)" d="m0 0 3 1-2 5-9 17-1-3 7-16z" fill="#BFBFBF"/>
<path transform="translate(1744,772)" d="m0 0h26l-2 2-6 1h-16z" fill="#191819"/>
<path transform="translate(992,544)" d="m0 0 1 2-3 15-5 1 1-5 5-12z" fill="#C2C3C3"/>
<path transform="translate(1446,887)" d="m0 0h2l-1 3-7 3-9 2h-8l4-2 14-4z" fill="#EDEDEC"/>
<path transform="translate(1471,752)" d="m0 0 5 3 7 9 2 5h-3l-10-14z" fill="#C7C7C7"/>
<path transform="translate(1667,727)" d="m0 0 7 1-3 2h-4v8l-6 1 1-5 4-6z" fill="#C3C4C4"/>
<path transform="translate(564,727)" d="m0 0h9v3l-18 2h-5l4-2z" fill="#222323"/>
<path transform="translate(631,876)" d="m0 0 2 1-10 9-6 3-3-2 16-10z" fill="#1C1C1C"/>
<path transform="translate(290,853)" d="m0 0 2 3h2l1 10h-4l-1 2z" fill="#262626"/>
<path transform="translate(567,800)" d="m0 0h4v2l3 1v6l-5-1-3-4v-2l-2-1z" fill="#2A2A2A"/>
<path transform="translate(646,800)" d="m0 0h2l1 4v8l-2 7-2 1z" fill="#121112"/>
<path transform="translate(597,789)" d="m0 0 1 4-10 7-4 1v-3z" fill="#262626"/>
<path transform="translate(1717,779)" d="m0 0h22l-1 2-18 1-4-2z" fill="#050405"/>
<path transform="translate(513,741)" d="m0 0 2 1-10 10-2 3h-2l-1 3-2-4 9-8z" fill="#787979"/>
<path transform="translate(337,706)" d="m0 0 1 3-5 11-2 4v-12l1-3 5-1z" fill="#969898"/>
<path transform="translate(792,584)" d="m0 0 2 1-4 5-15 10h-2v-2h3l1-3h3v-2h3l1-3h3l1-3z" fill="#9A9B9B"/>
<path transform="translate(1426,565)" d="m0 0 6 1 14 6 1 2-12-2v-2l-9-3z" fill="#2B2B2B"/>
<path transform="translate(971,497)" d="m0 0h6l-4 4-10 6-2 2-3-1z" fill="#0C0B0C"/>
<path transform="translate(1709,843)" d="m0 0 30 1v2h-31z" fill="#3D3E3E"/>
<path transform="translate(626,754)" d="m0 0 5 5 9 14 2 6-2 2-5-12-7-10z" fill="#2D2D2E"/>
<path transform="translate(401,745)" d="m0 0h3l-1 9-3 8h-1v-9z" fill="#242424"/>
<path transform="translate(343,713)" d="m0 0h2l-2 6-6 10-3-3 6-9z" fill="#1A1A1B"/>
<path transform="translate(1355,881)" d="m0 0 5 1 8 5 2 5-5-2-10-7z" fill="#2A2A2A"/>
<path transform="translate(1145,788)" d="m0 0 1 3-9 13-9 6-2-1 9-7 6-8z" fill="#202020"/>
<path transform="translate(1482,796)" d="m0 0 5 5 1 5-1 2h-5z" fill="#3E3F3F"/>
<path transform="translate(1692,762)" d="m0 0h3l1 3v10l-3 3z" fill="#4C4D4D"/>
<path transform="translate(528,892)" d="m0 0 6 1 6 2v2l5 1v1l-9-1-8-4z" fill="#353535"/>
<path transform="translate(528,817)" d="m0 0 4 2 3 3-2 4-5 1-1-4z" fill="#262626"/>
<path transform="translate(279,809)" d="m0 0 4 1 5 5v3h-5l-4-7z" fill="#C5C5C5"/>
<path transform="translate(1335,796)" d="m0 0h1l-1 21-2-2v-18z" fill="#0A0A0A"/>
<path transform="translate(1477,762)" d="m0 0 4 4 7 14 2 7h-3l-6-16-4-7z" fill="#353636"/>
<path transform="translate(250,759)" d="m0 0h22v1h-15v3l-6 1v-2l-2-1z" fill="#323232"/>
<path transform="translate(1685,740)" d="m0 0h5l1 15-1-2h-2z" fill="#1C1C1C"/>
<path transform="translate(1725,708)" d="m0 0 8 6 8 8-3 1-7-7-8-6z" fill="#4F5050"/>
<path transform="translate(799,603)" d="m0 0h6l-3 3h-2l-1 3-10-1-4-2 12-1z" fill="#363636"/>
<path transform="translate(1446,802)" d="m0 0 4 1 2 2-13 2h-8l3-2z" fill="#343535"/>
<path transform="translate(854,623)" d="m0 0 2 3 1 3 2 1 13 1v1h-6v2l-9-1-3-3z" fill="#171617"/>
<path transform="translate(1352,538)" d="m0 0 9 2 12 4 1 2h-5l-9-3-8-3z" fill="#292929"/>
<path transform="translate(954,493)" d="m0 0v3l-9 9-6 5-2-1 9-9 4-5z" fill="#2A2B2B"/>
<path transform="translate(618,823)" d="m0 0 1 3-4 9-6-5 4-3h4z" fill="#414242"/>
<path transform="translate(833,556)" d="m0 0 3 1-18 13-4 1 5-5z" fill="#8E908F"/>
<path transform="translate(1654,664)" d="m0 0 6 2 8 4-1 2-6-1-7-4z" fill="#232323"/>
<path transform="translate(1201,573)" d="m0 0 1 2-5 15-2 5h-2l1-6 6-15z" fill="#2D2D2D"/>
<path transform="translate(877,524)" d="m0 0 2 1-4 5-9 6h-3v-2z" fill="#AAACAC"/>
<path transform="translate(587,895)" d="m0 0h5v2l-7 2h-9l-5-1v-1z" fill="#151415"/>
<path transform="translate(813,864)" d="m0 0h16v2l-5 1h-11z" fill="#3A3A3A"/>
<path transform="translate(501,823)" d="m0 0 2 2 1 6-3 3-4-2v-3l2-3h2z" fill="#9C9F9E"/>
<path transform="translate(1755,817)" d="m0 0h4l-2 7-8 2 2-5z" fill="#3B3C3C"/>
<path transform="translate(303,813)" d="m0 0 6 5 5 12h-2l-8-12z" fill="#C0C0C0"/>
<path transform="translate(1425,801)" d="m0 0 2 2 1 6-3 7-4 4-2-1 4-2 1-4v-7l-1-4z" fill="#1D1D1D"/>
<path transform="translate(397,745)" d="m0 0h2l-2 11-3 7h-1l1-10z" fill="#232323"/>
<path transform="translate(367,660)" d="m0 0h2l-2 6-5 12-2-4z" fill="#464747"/>
<path transform="translate(919,595)" d="m0 0h5l2 5h-10v-4z" fill="#3C3D3D"/>
<path transform="translate(642,835)" d="m0 0 1 4-5 10h-3l3-9 2-4z" fill="#131313"/>
<path transform="translate(576,754)" d="m0 0 2 1-2 20-2 3-1-5z" fill="#1C1C1C"/>
<path transform="translate(1402,755)" d="m0 0h11l-2 6-7-3-5-1z" fill="#2E2E2E"/>
<path transform="translate(560,718)" d="m0 0h15l4 2-23 1 1-2z" fill="#B4B5B5"/>
<path transform="translate(853,617)" d="m0 0h2l-1 3-5 3-6 1h-13v-1l19-2v-2z" fill="#303131"/>
<path transform="translate(1326,796)" d="m0 0h1l1 7h2l-1 5-3-2-1 10h-1v-14z" fill="#939594"/>
<path transform="translate(589,761)" d="m0 0 9 1 1 2-1 9h-1v-7h-3l-1 3z" fill="#191919"/>
<path transform="translate(1197,606)" d="m0 0 1 3-4 10-1 1 2 2h-8l4-1 1-7 2-3z" fill="#272727"/>
<path transform="translate(1388,847)" d="m0 0h2l5 10 3 3-4-1-5-5-3-6z" fill="#3B3B3B"/>
<path transform="translate(288,819)" d="m0 0h4l-1 5-4 4-3-7z" fill="#828383"/>
<path transform="translate(1340,815)" d="m0 0h2l2 2 3 1 2 9h-2l-3-6-4-2v9h-1v-10z" fill="#9B9D9C"/>
<path transform="translate(387,745)" d="m0 0h2l-2 11-2 4h-2l1-7z" fill="#2F2F2F"/>
<path transform="translate(1389,731)" d="m0 0 3 1-1 2-12 5h-3v-2z" fill="#1B1B1B"/>
<path transform="translate(712,672)" d="m0 0h11l-1 5-3-1v-3h-4v4l-4-1z" fill="#8B8D8D"/>
<path transform="translate(1208,595)" d="m0 0 1 4-8 19-1-4 7-18z" fill="#363737"/>
<path transform="translate(1186,610)" d="m0 0h3l1 2-4 8h-4l2-6z" fill="#1C1C1C"/>
<path transform="translate(1332,536)" d="m0 0 9 2 13 4-1 2-5-1-15-5z" fill="#ACADAD"/>
<path transform="translate(359,676)" d="m0 0h2l-2 9-4 7h-1v-6z" fill="#343434"/>
<path transform="translate(1148,665)" d="m0 0h9v3l-7 3h-2z" fill="#878888"/>
<path transform="translate(1546,616)" d="m0 0 5 1 8 4 4 1 2 3-6-1-12-6z" fill="#343434"/>
<path transform="translate(1265,568)" d="m0 0h15l2 1v2h-11l-6-1z" fill="#EFEFEF"/>
<path transform="translate(624,862)" d="m0 0 3 1-9 8-9 6-2-1 12-9z" fill="#222"/>
<path transform="translate(1710,853)" d="m0 0h21l-4 2-6 1-10-1z" fill="#272727"/>
<path transform="translate(564,852)" d="m0 0h2l1 3 1 4-3 2-4-1 1-6z" fill="#1A1A1A"/>
<path transform="translate(567,844)" d="m0 0 4 2 3 5v2l-4-2h-2-3l1-6z" fill="#2B2B2B"/>
<path transform="translate(1410,794)" d="m0 0h7l6 4 2 4h-2l-3-3-12-3z" fill="#3F4040"/>
<path transform="translate(493,780)" d="m0 0h1l-1 9-1 5-2-2-2 2 2-9z" fill="#1B1B1B"/>
<path transform="translate(1439,769)" d="m0 0 1 2-6 9-8 9v-3l8-10z" fill="#242424"/>
<path transform="translate(276,771)" d="m0 0h17v8h-3v-7h-14z" fill="#7E7F7F"/>
<path transform="translate(1379,574)" d="m0 0 6 1 6 3v2l-11-1z" fill="#EDEDEC"/>
<path transform="translate(609,821)" d="m0 0h3v2h2v2l-4 3-4-2v-3z" fill="#343434"/>
<path transform="translate(1364,803)" d="m0 0h2v14l-3-1v-11z" fill="#8A8C8C"/>
<path transform="translate(1698,762)" d="m0 0h1v23h-1l-1-10h-1v-9z" fill="#292929"/>
<path transform="translate(511,738)" d="m0 0m-2 1h2l-2 4-7 7-4 2 2-4z" fill="#B8B9B9"/>
<path transform="translate(658,622)" d="m0 0 2 3 2 6 6 2 4 3-7-1-6-5-1-2z" fill="#545555"/>
<path transform="translate(564,848)" d="m0 0h2v4l-4 4-1 5h-5l4-7z" fill="#373838"/>
<path transform="translate(1401,828)" d="m0 0 4 4 5-1-2 5-6-1-2-1v-5z" fill="#1C1C1C"/>
<path transform="translate(1464,757)" d="m0 0 5 1 2 2v4l-5-1-2-3z" fill="#767777"/>
<path transform="translate(1165,654)" d="m0 0 3 1 2 2-10 3h-8l4-2 5-1 1-2z" fill="#151415"/>
<path transform="translate(1197,624)" d="m0 0 4 2v16l-2-2-1-12z" fill="#333"/>
<path transform="translate(1764,597)" d="m0 0 1 3-4 8-4 4h-2l2-4z" fill="#232323"/>
<path transform="translate(1374,546)" d="m0 0h6l-3 1v2l11 3 1 2-9-2-8-3v-2z" fill="#3C3D3D"/>
<path transform="translate(1153,772)" d="m0 0 1 3-7 14-2-2 7-14z" fill="#2F3030"/>
<path transform="translate(383,744)" d="m0 0h1l-1 7-3 8h-1l1-10z" fill="#2A2A2A"/>
<path transform="translate(1461,746)" d="m0 0 5 2 9 9 2 5-5-5-9-8-2-1z" fill="#323232"/>
<path transform="translate(275,746)" d="m0 0h16v1l-5 1v2h-7v-2z" fill="#606161"/>
<path transform="translate(1393,730)" d="m0 0 3 1v7l-5 1v-7z" fill="#0C0B0C"/>
<path transform="translate(1720,631)" d="m0 0h13l-3 2-7 2-5-1z" fill="#434343"/>
<path transform="translate(501,874)" d="m0 0 4 2 10 7-2 3-10-9z" fill="#1C1C1C"/>
<path transform="translate(1648,763)" d="m0 0h1v6h4v-6h1v8l-1 2h-5z" fill="#2A2A2A"/>
<path transform="translate(1206,613)" d="m0 0h16v1l-7 2h-8z" fill="#323333"/>
<path transform="translate(1221,537)" d="m0 0h2l-2 12-2 2-2-1 3-10z" fill="#272727"/>
<path transform="translate(1305,507)" d="m0 0 7 1 8 4-3 1-10-3z" fill="#979A99"/>
<path transform="translate(1262,815)" d="m0 0 1 2 9 1 2 1v2h-8l-4-2z" fill="#242525"/>
<path transform="translate(1416,808)" d="m0 0h2l-1 5-3 2h-4l2-4z" fill="#313131"/>
<path transform="translate(1392,764)" d="m0 0 9 3 6 4-1 2-10-5z" fill="#3B3C3C"/>
<path transform="translate(406,748)" d="m0 0h1v7h4l2-2-1 5-1 1h-5z" fill="#303030"/>
<path transform="translate(1294,746)" d="m0 0 1 2-6 8-4 3 2-5 4-6z" fill="#848686"/>
<path transform="translate(1534,610)" d="m0 0 9 3 4 3-3 1-12-5z" fill="#2B2B2C"/>
<path transform="translate(1348,854)" d="m0 0h3l7 9 4 5-4-2-9-9z" fill="#282828"/>
<path transform="translate(1335,805)" d="m0 0h1l1 19h-3l-1-9h1z" fill="#222"/>
<path transform="translate(533,791)" d="m0 0 4 1 13 8-3 1-13-8z" fill="#383838"/>
<path transform="translate(1685,763)" d="m0 0h3v10l-2 4-1-6z" fill="#3A3A3A"/>
<path transform="translate(1385,761)" d="m0 0 5 1 6 5-2 3-9-8z" fill="#2E2E2E"/>
<path transform="translate(1766,757)" d="m0 0h3l1 5h-9v-2z" fill="#222223"/>
<path transform="translate(1216,599)" d="m0 0 4 1-1 1v12h-3z" fill="#8F9190"/>
<path transform="translate(1327,541)" d="m0 0 7 1 6 3v2l-10-3-3-1z" fill="#0D0D0E"/>
<path transform="translate(1400,846)" d="m0 0h1v6l-3 3h-2l-1-4z" fill="#3A3B3B"/>
<path transform="translate(1460,845)" d="m0 0v3l-8 8-5 1-1-2 8-4z" fill="#1C1C1C"/>
<path transform="translate(491,824)" d="m0 0 2 4 1 6-3 1-2-10z" fill="#212121"/>
<path transform="translate(293,815)" d="m0 0 2 4-3 2v-2l-9 2v-3z" fill="#424343"/>
<path transform="translate(619,809)" d="m0 0 2 1-10 7-3-1v-2z" fill="#262626"/>
<path transform="translate(1343,771)" d="m0 0 1 2-4 11-2 4-2-1 3-9z" fill="#2B2B2C"/>
<path transform="translate(363,748)" d="m0 0 2 3v4l5-1-1 4-4 1-3-4z" fill="#303030"/>
<path transform="translate(292,743)" d="m0 0h7l1 3h-13v-2z" fill="#181818"/>
<path transform="translate(1167,657)" d="m0 0 3 1-4 2-1 3-7-2 4-3z" fill="#383838"/>
<path transform="translate(878,616)" d="m0 0h19v1h-11l1 3-9-3z" fill="#2B2C2C"/>
<path transform="translate(1212,564)" d="m0 0h1v5l-4 10-2-4 4-10z" fill="#2F2F2F"/>
<path transform="translate(994,539)" d="m0 0 1 4-2 11-3 4 1-7 1-9z" fill="#9A9D9C"/>
<path transform="translate(994,505)" d="m0 0h2l-2 6h-7l4-5z" fill="#3C3C3C"/>
<path transform="translate(609,841)" d="m0 0 4 4h-2l-2 4h-2v2h-3l2-4 3-4z" fill="#353636"/>
<path transform="translate(1342,844)" d="m0 0 4 2 4 8-4-1-4-6z" fill="#131213"/>
<path transform="translate(605,783)" d="m0 0 2 1-1 3-7 5-2-1 1-3z" fill="#3C3D3D"/>
<path transform="translate(846,547)" d="m0 0h2v2l-10 7-4-1z" fill="#8F9190"/>
<path transform="translate(1452,892)" d="m0 0 1 2-11 4v-2l-2-1z" fill="#383838"/>
<path transform="translate(613,888)" d="m0 0 4 1-6 4-5 1-1-2z" fill="#2E2E2E"/>
<path transform="translate(611,845)" d="m0 0h2l-2 4-9 8-1-3 4-3h2v-2z" fill="#7E7F7F"/>
<path transform="translate(575,796)" d="m0 0 5 4 1 7-4-5-3-3z" fill="#272727"/>
<path transform="translate(500,750)" d="m0 0v3l-6 8-3 1 2-5 5-5z" fill="#C3C3C3"/>
<path transform="translate(296,740)" d="m0 0h6l-4 3-10 1-3-2z" fill="#454646"/>
<path transform="translate(516,736)" d="m0 0m-1 1m-1 1m-1 1m-2 1h2l-2 4-6 5v-3z" fill="#9C9F9E"/>
<path transform="translate(1395,553)" d="m0 0 5 1 8 3v2l-5-1-8-3z" fill="#393939"/>
<path transform="translate(550,896)" d="m0 0 11 1-2 1v2l-10-1z" fill="#1A1A1A"/>
<path transform="translate(601,893)" d="m0 0h5l-3 3-8 3-3-1z" fill="#383939"/>
<path transform="translate(1627,762)" d="m0 0h19l-2 4-4-2-13-1z" fill="#FEFEFD"/>
<path transform="translate(1553,610)" d="m0 0 3 1 5 7 2 2-5-1-5-7z" fill="#1D1D1E"/>
<path transform="translate(1485,839)" d="m0 0 1 4-3 5h-3l2-6z" fill="#121212"/>
<path transform="translate(605,815)" d="m0 0 3 1-1 4-4 2-1-5z" fill="#2B2B2B"/>
<path transform="translate(492,764)" d="m0 0 1 3-2 3v7l-1-3h-3l2-6z" fill="#969998"/>
<path transform="translate(392,745)" d="m0 0h2v6l-2 3h-2l1-8z" fill="#333"/>
<path transform="translate(535,734)" d="m0 0 2 1v2l-9 4-1-3z" fill="#1B1B1B"/>
<path transform="translate(529,683)" d="m0 0 4 1-7 3-7 1 1-2z" fill="#747575"/>
<path transform="translate(904,577)" d="m0 0h5l3 3-1 2-9-2v-2z" fill="#FAFAF9"/>
<path transform="translate(1488,787)" d="m0 0 3 1 1 8-3 1z" fill="#1F1F1F"/>
<path transform="translate(1284,753)" d="m0 0 3 1-2 5-4 4-1-2z" fill="#C4C4C4"/>
<path transform="translate(800,606)" d="m0 0 1 2h6l2 2-1 1-10-1z" fill="#1C1C1C"/>
<path transform="translate(1199,599)" d="m0 0 1 3-1 4h-2l-2 6-1-4 4-8z" fill="#363636"/>
<path transform="translate(1197,588)" d="m0 0 1 3-3 9-4-1 1-4h3l1-5z" fill="#212121"/>
<path transform="translate(1255,512)" d="m0 0 10 1 4 2-5 1-9-3z" fill="#333434"/>
</svg>
